<svg xmlns="http://www.w3.org/2000/svg" xmlns:xlink="http://www.w3.org/1999/xlink" viewBox="0 0 683.24 233.49"><defs><style>.a{fill:url(#a);}.b{fill:url(#b);}.c{fill:url(#c);}.d{fill:url(#d);}.e{fill:url(#e);}.f{fill:url(#f);}.g{fill:url(#g);}.h{fill:url(#h);}.i{fill:url(#i);}.j{fill:url(#j);}.k{fill:url(#k);}.l{fill:url(#l);}.m{fill:url(#m);}.n{fill:url(#n);}.o{fill:#fc0;}.p{fill:#c8a100;}.q{fill:#3958a8;}.r{fill:#f9f9f9;}</style><linearGradient id="a" x1="65.3" y1="12.48" x2="65.3" y2="218.24" gradientTransform="translate(0.9 -3.26) rotate(0.53)" gradientUnits="userSpaceOnUse"><stop offset="0" stop-color="#396da8"/><stop offset="0.16" stop-color="#3464a1"/><stop offset="0.42" stop-color="#284a8d"/><stop offset="0.76" stop-color="#13216e"/><stop offset="0.99" stop-color="#030055"/></linearGradient><linearGradient id="b" x1="138.03" y1="12.57" x2="138.03" y2="218.2" xlink:href="#a"/><linearGradient id="c" x1="215.69" y1="12.48" x2="215.69" y2="218.24" xlink:href="#a"/><linearGradient id="d" x1="266.15" y1="12.48" x2="266.15" y2="218.24" xlink:href="#a"/><linearGradient id="e" x1="314.28" y1="12.48" x2="314.28" y2="218.24" xlink:href="#a"/><linearGradient id="f" x1="330.44" y1="12.48" x2="330.44" y2="218.24" xlink:href="#a"/><linearGradient id="g" x1="341.19" y1="12.48" x2="341.19" y2="218.24" xlink:href="#a"/><linearGradient id="h" x1="323.45" y1="12.48" x2="323.45" y2="218.24" xlink:href="#a"/><linearGradient id="i" x1="393.99" y1="12.48" x2="393.99" y2="218.24" xlink:href="#a"/><linearGradient id="j" x1="456.53" y1="12.48" x2="456.53" y2="218.24" xlink:href="#a"/><linearGradient id="k" x1="462.41" y1="12.48" x2="462.41" y2="218.24" xlink:href="#a"/><linearGradient id="l" x1="527.55" y1="12.48" x2="527.55" y2="218.24" xlink:href="#a"/><linearGradient id="m" x1="579.19" y1="12.48" x2="579.19" y2="218.24" xlink:href="#a"/><linearGradient id="n" x1="642.94" y1="12.48" x2="642.94" y2="218.24" xlink:href="#a"/></defs><title>pokesearchlogo</title><path class="a" d="M87.56,54.05a36.3,36.3,0,0,1,7.59.88A26.06,26.06,0,0,1,102.94,58a24.61,24.61,0,0,1,6.36,5.52,7.69,7.69,0,0,1,1.51,3c1,4.13-.25,9.65-3.66,16.55a151.55,151.55,0,0,1-10.61,18.44c-3.68,5.39-6.4,9.3-8.24,11.7q10.13,16.3,19.93,32.79c-4.81,5.27-7.18,7.92-11.85,13.23Q72.95,125.62,48.12,93a5.32,5.32,0,0,0-.81,1.29c-0.46.84-1.07,2.1-1.81,3.46s-1.21,1.67-1.41,2.67h0a17.83,17.83,0,0,1-1.91-2.25c-1.16-1.42-2.75-3.48-4.76-6s-4.28-5.38-6.8-8.46-4.18-5-5-5.77Q32.31,74,38.28,70.72T51,64.21q6.79-3.2,13.22-5.53A67.55,67.55,0,0,1,74.6,55.84a90,90,0,0,1,11.95-1.78h1M87.49,77.53h0.2a27.88,27.88,0,0,0-5.44.6c-5.35,1-9.53,3.21-12.48,6.4,3.87,6.08,5.79,9.16,9.6,15.26,1.8-2.79,4-6.53,6.56-11.24s3.67-8.07,3.19-9.87a1.34,1.34,0,0,0-1.25-1.15H87.49m0.15-32.48H86.37c-1.61,0-4.75.27-13.47,1.94a76.84,76.84,0,0,0-11.73,3.22c-4.59,1.67-9.29,3.63-14,5.85s-9.1,4.46-13.27,6.77-8.46,4.74-12.81,7.27l-10.26,6,8.51,8.27c0.09,0.09,1,1,4.28,5C26,92.21,28.26,95,30.36,97.66c2.25,2.82,3.74,4.92,4.85,6.27,2.05,2.5,4.38,5.56,8.78,5.6h1l1-.46,2.36-.64C62.31,127,75.93,145.73,89,164.51l6.56,9.41,7.59-8.65c4.65-5.3,7-7.87,11.73-13.11l4.5-4.93L116,141.49c-5.5-9.26-11.15-18.59-16.84-27.81,1.31-1.86,2.88-4.15,4.84-7a161.39,161.39,0,0,0,11.25-19.54c4.44-9,5.86-16.43,4.33-22.67a16.66,16.66,0,0,0-3.25-6.54l0,0,0,0a33.7,33.7,0,0,0-8.67-7.51,35.16,35.16,0,0,0-10.47-4.18,45.38,45.38,0,0,0-9.47-1.1h0Z" transform="translate(-10.85 -9.34)"/><path class="b" d="M141.11,81q1.58,0,3.14.17a46.54,46.54,0,0,1,9.83,2.16,20.81,20.81,0,0,1,8.08,4.75,26,26,0,0,1,5.46,7.56,37.26,37.26,0,0,1,3,9.18,44.69,44.69,0,0,1,.82,7.84,39.93,39.93,0,0,1-.5,7.11,21.74,21.74,0,0,1-1.67,5.67,51.94,51.94,0,0,1-5.91,10.1,39.79,39.79,0,0,1-7.06,7.31,36,36,0,0,1-7.63,4.67,32.24,32.24,0,0,1-7.94,2.38,30.27,30.27,0,0,1-5.13.39,29.22,29.22,0,0,1-4.31-.36,28.09,28.09,0,0,1-8.31-2.58,31.73,31.73,0,0,1-10.73-9.62,42.2,42.2,0,0,1-6.74-14.13c-2.35-8.86-1.55-16.52,2.55-22.95a46.71,46.71,0,0,1,12.05-13.12A34.2,34.2,0,0,1,135,81.45a37.91,37.91,0,0,1,6.15-.45m0.76,37.08a13.44,13.44,0,0,0,2.17-.15,10.69,10.69,0,0,0,6.76-3.75,16,16,0,0,0,3.48-7.51,21.5,21.5,0,0,0,0-8.46,18.46,18.46,0,0,0-1.78-5,14.42,14.42,0,0,1-2.79,8.09c-1.77,2.48-3.7,3.88-5.82,4.2a6.05,6.05,0,0,1-1,.07,5.37,5.37,0,0,1-2-.42q-2.07-1.06-2.82-4.39a8.29,8.29,0,0,1,.68-5.34,10.93,10.93,0,0,1,4.89-4.82,20.36,20.36,0,0,0-7.31,2.55,19.62,19.62,0,0,0-5.46,4.57,16.63,16.63,0,0,0-3,5.61,10.85,10.85,0,0,0-.25,5.77c0.82,3.44,3.15,5.9,7,7.39a20.75,20.75,0,0,0,7.32,1.59M141.19,73.4h0c-2.51-2-5.07-.53-7.61-0.14a42.65,42.65,0,0,0-18.69,7.31A55,55,0,0,0,100.49,96c-5.46,8.56-6.69,18.6-3.66,30A51.15,51.15,0,0,0,105,143.08a40.71,40.71,0,0,0,13.79,12.25l0.08,0,0.08,0a37.18,37.18,0,0,0,11,3.44,38.4,38.4,0,0,0,5.64.47,39.44,39.44,0,0,0,6.65-.51,41.41,41.41,0,0,0,10.15-3,45.2,45.2,0,0,0,9.55-5.82,49,49,0,0,0,8.67-8.94,61.14,61.14,0,0,0,6.92-11.79,30.86,30.86,0,0,0,2.37-7.94,49.11,49.11,0,0,0,.62-8.71,53.91,53.91,0,0,0-1-9.43,46.43,46.43,0,0,0-3.75-11.39,35.12,35.12,0,0,0-7.34-10.15,29.81,29.81,0,0,0-11.53-6.81c-4.15-1.35-8.1-1.51-11.75-1.86-1.3-.13-2.62.49-3.93,0.49h0Z" transform="translate(-10.85 -9.34)"/><path class="c" d="M257.79,138.49l-0.17,0a17.51,17.51,0,0,1-9.33-2c1.06,6,1.82,10.31,3.06,17.47q-24.12-14.28-48.8-27.5c2.36,10.93,3.54,16.4,5.87,27.34-10.58,1.38-15.86,2.12-26.4,3.71q-5-20.27-10-40.51a70.88,70.88,0,0,1-2,12.7,4.4,4.4,0,0,1-3.3,3.34q3.31,13.34,6.56,26.62l2,8,8.13-1.23c10.52-1.59,15.67-2.31,26.22-3.69l9.67-1.26-2-9.54-1.74-8.15c10.58,5.87,21,11.88,31.28,17.93l16.8,9.94-3.35-19.23C259.24,146.74,258.56,142.85,257.79,138.49Z" transform="translate(-10.85 -9.34)"/><path class="d" d="M265.73,31.33c6.46,7.6,9.64,11.41,15.88,19.08q-19.67,4.42-39.2,9.42c-3.28-3.83-4.93-5.75-8.26-9.56q15.64-9.72,31.59-18.93m7.12,38.55a44.84,44.84,0,0,1,11.53,1.59,36.36,36.36,0,0,1,12.53,6.1q-15.29,18.9-29.59,38.58a19.17,19.17,0,0,0,7.87-2.2,23.45,23.45,0,0,0,6.61-5.28,36.4,36.4,0,0,0,5.18-7.76c6.13,6.3,9.15,9.46,15.08,15.83-0.94,3.2-3.41,6.2-7.38,9a53.58,53.58,0,0,1-14.26,6.94A67.55,67.55,0,0,1,263.7,136q-2.11.14-4.11,0.12a40.66,40.66,0,0,1-9.45-1.13,20.3,20.3,0,0,1-9.78-5.23c-4.25-4.26-6.88-9.94-7.8-17.05a44.09,44.09,0,0,1,1.08-16.88q2.2-8.45,5.48-12a40.7,40.7,0,0,1,8.79-7.2A45.16,45.16,0,0,1,258.24,72a48.24,48.24,0,0,1,11.34-2q1.66-.1,3.29-0.08m-19.27,41.36c6.23-9.07,9.43-13.59,16-22.59a13.93,13.93,0,0,0-5.14-1.07q-0.47,0-.94,0a15.73,15.73,0,0,0-6.1,1.65,9.3,9.3,0,0,0-3.95,3.22,14.85,14.85,0,0,0-2.6,10.17,17.33,17.33,0,0,0,.82,3.74q0.6,1.77,1.93,4.85m14.14-91.46-6.5,3.76c-10.7,6.18-21.41,12.6-31.83,19.08l-9,5.59,7,8c3.32,3.8,4.93,5.66,8.2,9.49l3.64,4.26,4.05-1,0,0a49.84,49.84,0,0,0-10.73,8.79c-3.24,3.51-5.71,8.7-7.57,15.85a53.25,53.25,0,0,0-1.3,20.3c1.17,9.06,4.65,16.55,10.35,22.26a29.21,29.21,0,0,0,14,7.61,49.86,49.86,0,0,0,11.54,1.4c1.55,0,3.16,0,4.79-.14a77,77,0,0,0,19-3.74,62.81,62.81,0,0,0,16.64-8.14c5.66-4,9.3-8.66,10.82-13.82l1.44-4.92-3.5-3.75c-5.7-6.11-8.81-9.38-14.43-15.16q4.86-6.23,9.69-12.21l5.82-7.2-7.36-5.62a45.45,45.45,0,0,0-15.6-7.63,53.63,53.63,0,0,0-11-1.82l7.84-1.79L297.77,56l-9.18-11.28C282.33,37,279,33.1,272.59,25.5l-4.86-5.72h0Z" transform="translate(-10.85 -9.34)"/><path class="e" d="M328,96.6a136.27,136.27,0,0,1-17.26-10.19,92.13,92.13,0,0,1-15.26-12.93c2.38,3.52.88,7.72-2,10.71a102.14,102.14,0,0,0,12.16,9.67c3.19,2.16,6.18,4.08,9,5.77a78.74,78.74,0,0,1-8.46-3.11c-7.06-3-9.17-4-9.79-4.37l-2.39-1.69-0.44,0A6.18,6.18,0,0,1,292.24,94c-1,1.29-2.22,2.49-3.23,3.82a13.46,13.46,0,0,0-1.16,1.74,7,7,0,0,1,2.44,2.82c0.61-1.88,1-2.82,1.15-2.83,1.16,0.82,5,2.54,11.37,5.23s11.29,4.25,14.64,4.5a45.64,45.64,0,0,1,6.39,1.21c3,0.73,5.06,1.22,6.17,1.47a16.35,16.35,0,0,0,3.36.34h0.56a6.83,6.83,0,0,0,4-1.06q2.58-1.89,2.55-4C340.49,104.2,336.38,100.6,328,96.6Z" transform="translate(-10.85 -9.34)"/><path class="f" d="M373.48,32.37c-9.53-2.81-20.32-6-31.36-8.41a121.18,121.18,0,0,0-24.68-2.77h-2.19c-17.66.16-31,7.35-36.64,19.72V41c-0.17.39-.33,0.78-0.48,1.17a12,12,0,0,1,6.26,4.09,5.82,5.82,0,0,1,1.15,2.35,20.22,20.22,0,0,1,1.29-3.94c4.92-10.84,17.67-14.35,28.52-14.44h2a112.28,112.28,0,0,1,22.85,2.57c10.13,2.21,20.1,5.11,30,8,3.49-2.21,8.36-2.09,12.32-2.95h0l1.22-2.43Z" transform="translate(-10.85 -9.34)"/><path class="g" d="M368.64,54.8a8.25,8.25,0,0,1-2.2-3.45c-0.47,1.15-1,2.38-1.51,3.71-3,7.5-4.61,11.26-4.85,11.26a47,47,0,0,0-5.57-3q-5.09-2.52-11.16-4.87a38.64,38.64,0,0,0-9.9-2.68c-1.15-.1-3.83-0.65-8.07-1.63a45.45,45.45,0,0,0-9-1.38H316a7.49,7.49,0,0,0-4.27,1.13q-2.45,1.71-2.35,3.91a7.22,7.22,0,0,0,2.28,4.37,31.67,31.67,0,0,0,5.62,4.63,86.64,86.64,0,0,0,7.56,4.47q4.12,2.18,8.08,3.94A63.65,63.65,0,0,1,347,83.61a45.29,45.29,0,0,1,9.16,9.52c0.6,0.88,1.15,1.77,1.66,2.66a49.21,49.21,0,0,1,2.17-7.66,5.69,5.69,0,0,1,1.81-2.5,58.13,58.13,0,0,0-9.17-9A72.89,72.89,0,0,0,336.52,67c-1.65-.73-3.34-1.53-5.07-2.4,0.49,0.07.88,0.12,1.23,0.15a29.53,29.53,0,0,1,7.45,2.11c3.74,1.44,7.24,3,10.4,4.53,2.32,1.15,3.48,1.77,4,2.06l2,1.84,3.53,0c2.14,0,6.11-.72,8.57-5.74,0.3-.61.66-1.41,1.14-2.53,0.79-1.83,1.88-4.49,3.54-8.63l0.47-1.15A9.39,9.39,0,0,1,368.64,54.8Z" transform="translate(-10.85 -9.34)"/><path class="h" d="M360.43,121.07l-0.14.33A22.21,22.21,0,0,1,350.07,132a36.64,36.64,0,0,1-15.94,3.42h-1.27a82.43,82.43,0,0,1-10.74-.89q-6.7-1-13-2.41t-13.37-3.35l-2.45-.65a3.83,3.83,0,0,1-2.07,2.06A86.65,86.65,0,0,1,280.47,134l0.51,0.13,1.3,0.34,11.15,2.95c5,1.32,9.43,2.44,13.65,3.42,4.43,1,9.06,1.89,13.77,2.56a91.85,91.85,0,0,0,11.92,1h1.47A45.73,45.73,0,0,0,354.06,140a30.4,30.4,0,0,0,11.67-10.14A91.81,91.81,0,0,1,360.43,121.07Z" transform="translate(-10.85 -9.34)"/><path class="i" d="M401.33,29.69c5.42,8.14,8.08,12.23,13.28,20.42q-20.11,2.58-40.15,5.75c-2.75-4.11-4.14-6.16-6.95-10.26q16.78-8.22,33.81-15.9M398.82,68.4l1.28,0a44.77,44.77,0,0,1,14.52,2.86,34.65,34.65,0,0,1,11.66,7.22q-17.66,17.36-34.43,35.6h0.43a19.59,19.59,0,0,0,7.67-1.47,24.75,24.75,0,0,0,7.25-4.64,38.43,38.43,0,0,0,6.16-7.23c5.27,6.82,7.85,10.25,12.92,17.12-1.35,3.09-4.2,5.84-8.51,8.27a55.89,55.89,0,0,1-15.08,5.59,68.88,68.88,0,0,1-16,1.76l-1.07,0a43.19,43.19,0,0,1-13.32-2.25,19.25,19.25,0,0,1-9-6.1c-3.66-4.63-5.52-10.51-5.51-17.66a44.81,44.81,0,0,1,3.27-16.67c2.19-5.47,4.53-9.28,7-11.43A42.88,42.88,0,0,1,377.73,73a46.82,46.82,0,0,1,10.85-3.66,48.64,48.64,0,0,1,10.24-1m-20,39.57q9.24-10.62,18.81-21a13.36,13.36,0,0,0-5.9-1.6h-0.32a16.08,16.08,0,0,0-6,1.08,9.8,9.8,0,0,0-4.34,2.84,15.35,15.35,0,0,0-3.91,9.87,17.05,17.05,0,0,0,.32,3.79q0.37,1.82,1.28,5m25.75-89.63-7,3.14c-11.42,5.16-22.89,10.55-34.07,16l-9.35,4.58,5.88,8.59c2.8,4.08,4.15,6.08,6.89,10.18l3.2,4.79,3.2-.51a52,52,0,0,0-11.22,7.45c-3.61,3.14-6.7,8-9.45,14.88a54,54,0,0,0-3.92,20c0,9.17,2.48,17,7.45,23.27a28.15,28.15,0,0,0,13.08,9,52.37,52.37,0,0,0,16.09,2.76l1.22,0a78.27,78.27,0,0,0,18.05-2A65.13,65.13,0,0,0,422.18,134c6.05-3.41,10.21-7.61,12.35-12.51l2.08-4.77-3.09-4.18c-4.84-6.55-7.5-10.09-12.28-16.28q5.7-5.8,11.34-11.35l6.64-6.53L432.47,72a43.73,43.73,0,0,0-14.65-9.1,52.42,52.42,0,0,0-10.33-2.76L415.75,59l14-1.8L422.2,45.28c-5.21-8.21-8-12.44-13.39-20.59l-4.23-6.36h0Z" transform="translate(-10.85 -9.34)"/><path class="j" d="M465.81,80a20.38,20.38,0,0,0-6.73,1.45,22.76,22.76,0,0,0-5.86,3.3,17.24,17.24,0,0,0-4,4.45,11.46,11.46,0,0,0-1.76,4.95c-0.32,3.42,1.12,6.31,4.26,8.69a16.45,16.45,0,0,0,8.72,3.56l0.69,0q0.72,0,1.73-.06l1.34-12a5.11,5.11,0,0,1-2.76-1q-1.63-1.49-1.22-5.31A9.7,9.7,0,0,1,465.81,80Z" transform="translate(-10.85 -9.34)"/><path class="k" d="M491.68,53.26c-8,2.36-16.13,4.83-24.1,7.37-0.91-.13-2-0.24-3.29-0.34-1-.08-2-0.13-3-0.13a45.84,45.84,0,0,0-17.09,3.21A62.45,62.45,0,0,0,427,73.72a5.85,5.85,0,0,1,1.58,3.39,21.24,21.24,0,0,1-1.86,10.09,27,27,0,0,1,4.9-5.61,54.25,54.25,0,0,1,15.83-9.82,36.77,36.77,0,0,1,13.75-2.6q1.21,0,2.42.11,2.25,0.18,3.39.39l0.43,0.49q13.35-4.28,26.81-8.24-1.92,15.7-3.86,31.4a41.74,41.74,0,0,1-.45,6.67,36.67,36.67,0,0,1-.91,4.8q-2,17.23-4.11,34.45c-10.25-.49-15.38-0.69-25.61-1l0.38-3.43a35.27,35.27,0,0,1-10.81,1.65q-1,0-2-.08a28.41,28.41,0,0,1-9-2.09,24.53,24.53,0,0,1-7.09-4.41,25.05,25.05,0,0,1-4.69-6.11,9.92,9.92,0,0,1-3,3.2c-0.13.47-.27,0.95-0.44,1.42a4.84,4.84,0,0,1-2.45,2.89,33.2,33.2,0,0,0,4.43,5.15l0.06,0.06,0.06,0.06a33.6,33.6,0,0,0,9.66,6,37.54,37.54,0,0,0,11.85,2.77c0.86,0.06,1.74.1,2.6,0.11h0.64l-0.17,1.5,9.78,0.28c10.22,0.29,15.21.48,25.44,1l8.37,0.4,1-8.32q2-16.91,4-33.81a50.46,50.46,0,0,0,1-5.26,52.31,52.31,0,0,0,.54-7.41q1.9-15.4,3.79-30.8l1.66-13.58Z" transform="translate(-10.85 -9.34)"/><path class="l" d="M520.18,68.45L523,72.55q4.47-.83,8.26-1.31t7.06-.63q1,0,2,0a33.81,33.81,0,0,1,4.26.3,21.28,21.28,0,0,1,10.08,4,38.25,38.25,0,0,1,7.84,7.46A17,17,0,0,1,565.39,92c-9.53,3.81-14.25,5.76-23.57,9.73a18.6,18.6,0,0,0-2.89-6.95,7.1,7.1,0,0,0-4.83-3.36,5.2,5.2,0,0,0-.63,0c-2.4,0-4.75,1.65-7,5s-4.33,9.92-6,19.23q-1.7,9.78-3,23.15l-3.59,0q-12.36-.12-24.73,0c0.22-10.42.47-20.83,1.95-31.15q0.32-2.24,1.11-6.14,1.79-16.43,3.56-32.86c9.72-.12,14.59-0.14,24.36-0.1m4.71-9-4.67,0c-9.85,0-14.67,0-24.51.1l-8,.1-0.85,7.94Q485.13,83.8,483.36,100c-0.51,2.52-.88,4.62-1.12,6.25-1.59,11.06-1.83,22.31-2,32.23l-0.2,9.3,9.3-.11c8.14-.09,16.4-0.1,24.54,0l3.56,0,8.27,0.1,0.8-8.23c0.85-8.77,1.83-16.34,2.89-22.47,1.32-7.6,2.65-11.71,3.58-13.88L533,103.5l2.22,10.78L545.35,110c9.32-4,13.91-5.86,23.38-9.65L574.6,98l-0.21-6.31A25.79,25.79,0,0,0,569.8,77a46.48,46.48,0,0,0-9.69-9.34A30.11,30.11,0,0,0,545.82,62a43,43,0,0,0-5.39-.38c-0.81,0-1.63,0-2.46,0-2.44.1-5.07,0.34-7.83,0.69q-1.45.19-3,.42l-2.28-3.26h0Z" transform="translate(-10.85 -9.34)"/><path class="m" d="M603.11,117c4-.09,7.68-0.15,13-0.21l9.62-.12-0.76-9.59a57.54,57.54,0,0,0-1-6.35,49.8,49.8,0,0,0-3.35-10.14A31.08,31.08,0,0,0,613.09,80l0,0,0,0a41.15,41.15,0,0,0-20.92-9.91,43.15,43.15,0,0,0-6.81-.6,45.32,45.32,0,0,0-5.22.26,45.88,45.88,0,0,0-12.28,3.13,48.9,48.9,0,0,0-6.19,3,10.62,10.62,0,0,1,4.48,7.8,39.86,39.86,0,0,1,5.08-2.51A36.74,36.74,0,0,1,581,78.7a36.11,36.11,0,0,1,4.18-.21,34,34,0,0,1,5.39.48A32.21,32.21,0,0,1,607,86.71a22.06,22.06,0,0,1,5.29,7.54,40.71,40.71,0,0,1,2.76,8.28,51.42,51.42,0,0,1,.87,5.29c-9.24.11-13.85,0.21-23,.48a4.19,4.19,0,0,0-2.22-4.2,16.11,16.11,0,0,0-5.22-1.82q-1-.08-1.9-0.09c-9.13-.09-14.92,4.88-16.89,14.42-1.66,8.06.1,13.19,4.93,14.94a14.42,14.42,0,0,0,2.22.2,13.31,13.31,0,0,0,4.72-.82,19,19,0,0,0,6.14-3.7,31.73,31.73,0,0,0,5.07-5.77c8.2,3.18,12.27,4.8,20.38,8.11-0.43.69-1.39,2.06-2.86,4.08-1.65,2.27-4.87,5.11-9.56,8.55a34.87,34.87,0,0,1-14.24,6.48,51.82,51.82,0,0,1-9.92.91A42.82,42.82,0,0,1,567,149a33.16,33.16,0,0,1-20.52-11.53,21.75,21.75,0,0,1-4.7-9.73,27.93,27.93,0,0,1,0-10.87,40.67,40.67,0,0,1,2-6.84c-4.81.77-6.6-3.11-6.64-7.3a50.1,50.1,0,0,0-4.2,12.41,37,37,0,0,0,0,14.35,30.75,30.75,0,0,0,6.59,13.72l0,0.06,0.05,0.06a42.19,42.19,0,0,0,25.9,14.57,52.06,52.06,0,0,0,8,.68,61.08,61.08,0,0,0,11.64-1.06A43.92,43.92,0,0,0,603,149.48c5.65-4.14,9.31-7.48,11.52-10.51s2.86-4,3.22-4.62l5.66-9.06-9.9-4C609.4,119.56,606.27,118.3,603.11,117Zm-19.54-2.41-1.2,1.74a22.88,22.88,0,0,1-3.63,4.14,10,10,0,0,1-3.25,2l-0.38.12a16.38,16.38,0,0,1,.41-4.18c1-4.62,2.56-7.29,8-7.24h0.26Z" transform="translate(-10.85 -9.34)"/><path class="n" d="M692.31,115.21A48.93,48.93,0,0,0,687,104a43.32,43.32,0,0,0-6.83-8.5,33.37,33.37,0,0,0-15.64-7.81,59,59,0,0,0-10.44-1.29c2.18-11,4.35-22,6.48-33l1.89-9.71-9.85-1c-10.67-1-15.89-1.5-26.57-2.35l-7.66-.61-1.8,7.46c-2.89,12-5.81,24-8.74,36.07a4.82,4.82,0,0,1,4.08,3.45,59,59,0,0,0,2.76,6.43Q620,71.33,625.35,49.41c10.55,0.84,15.83,1.3,26.41,2.33q-4.27,22-8.67,44,4.52-.38,8.46-0.34a53,53,0,0,1,11,1.14,24.44,24.44,0,0,1,11.47,5.61,35,35,0,0,1,5.37,6.75,39.74,39.74,0,0,1,4.32,9.12,22.37,22.37,0,0,1,1.19,8.88,82.15,82.15,0,0,1-4.06,20.89,87.39,87.39,0,0,1-4,9.39q-2.39,4.85-6.44,12.38c-9.49-1.76-14.23-2.6-23.72-4.19,0.66-1.8,1.54-4.42,2.65-7.82,4-12.06,6.55-25,5.46-37.76-0.45-4.11-1.48-6.34-3-6.69a2.57,2.57,0,0,0-.53-0.06c-2,0-4.92,2.13-8.63,6.46a25.24,25.24,0,0,0-2.75,4.07,45.42,45.42,0,0,0-2.48,5.35q-1.18,3-2.44,7.17-2.54,8.43-5.43,21.62-14.19-1.4-28.41-2.45a75.55,75.55,0,0,1,1.46-7.6c0.35-1.47.71-3,1.08-4.52a70.12,70.12,0,0,1-8.75,3.35,4.35,4.35,0,0,1-1.36.24c-0.66,2.91-1.1,5.29-1.37,7.4l-1.19,9.4,9.45,0.7c9.36,0.7,18.85,1.52,28.2,2.44l7.73,0.76-1.85,5,10.72,1.79c9.48,1.58,14.1,2.4,23.56,4.16l6.47,1.2,3.11-5.8c2.86-5.32,5-9.46,6.58-12.65a96.79,96.79,0,0,0,4.42-10.37,91.29,91.29,0,0,0,4.55-23.16A31.39,31.39,0,0,0,692.31,115.21Zm-51.5,39.52c-0.93,2.84-1.88,5.71-2.55,7.51l-1.35,3.66,1.38-6.27c1.94-8.78,3.66-15.63,5.26-21,0.76-2.53,1.5-4.7,2.19-6.47l0-.05A103,103,0,0,1,640.81,154.73Z" transform="translate(-10.85 -9.34)"/><path class="o" d="M25.72,68.89Q32.4,65,38.36,61.71t12.75-6.5Q57.9,52,64.33,49.68a67.55,67.55,0,0,1,10.35-2.84,90,90,0,0,1,11.95-1.78,36.21,36.21,0,0,1,8.6.87A26.07,26.07,0,0,1,103,49a24.61,24.61,0,0,1,6.36,5.52,7.69,7.69,0,0,1,1.51,3c1,4.13-.25,9.65-3.66,16.55A151.55,151.55,0,0,1,96.62,92.59c-3.68,5.39-6.4,9.3-8.24,11.7q10.13,16.3,19.93,32.79c-4.81,5.27-7.18,7.92-11.85,13.23Q73,116.62,48.2,84a5.31,5.31,0,0,0-.81,1.29l-1.81,3.29c-0.74,1.35-1.21,2.19-1.41,2.5A10.07,10.07,0,0,1,42.25,89q-1.75-2.12-4.76-5.93t-6.8-8.42C28.16,71.56,26.5,69.65,25.72,68.89ZM69.85,75.6c3.87,6.08,5.79,9.13,9.6,15.23,1.8-2.79,4-6.55,6.56-11.25s3.67-8,3.19-9.75a1.23,1.23,0,0,0-1.3-1,27.65,27.65,0,0,0-5.57.47C77,70.29,72.8,72.41,69.85,75.6Z" transform="translate(-10.85 -9.34)"/><path class="o" d="M154.17,74.33a20.82,20.82,0,0,1,8.08,4.75,26,26,0,0,1,5.46,7.56,37.25,37.25,0,0,1,3,9.18,44.69,44.69,0,0,1,.82,7.84,39.92,39.92,0,0,1-.5,7.11,21.72,21.72,0,0,1-1.67,5.67,51.94,51.94,0,0,1-5.91,10.1,39.81,39.81,0,0,1-7.06,7.31,36,36,0,0,1-7.63,4.66,32.24,32.24,0,0,1-7.94,2.38,29.62,29.62,0,0,1-9.43,0,28.09,28.09,0,0,1-8.31-2.58,31.74,31.74,0,0,1-10.73-9.62,42.2,42.2,0,0,1-6.74-14.13c-2.35-8.86-1.55-16.52,2.55-22.95a46.71,46.71,0,0,1,12.05-13.12A34.2,34.2,0,0,1,135,72.45a37.21,37.21,0,0,1,9.29-.28A46.54,46.54,0,0,1,154.17,74.33Zm-1.6,9.86a14.42,14.42,0,0,1-2.79,8.09c-1.77,2.48-3.7,3.88-5.82,4.2a5.5,5.5,0,0,1-3-.35q-2.07-1.06-2.82-4.39a8.29,8.29,0,0,1,.68-5.34,10.93,10.93,0,0,1,4.89-4.82,20.36,20.36,0,0,0-7.31,2.55,19.63,19.63,0,0,0-5.46,4.57,16.63,16.63,0,0,0-3,5.61,10.85,10.85,0,0,0-.25,5.77c0.82,3.44,3.15,5.9,7,7.39a18.44,18.44,0,0,0,9.49,1.44,10.69,10.69,0,0,0,6.76-3.75,16,16,0,0,0,3.48-7.51,21.5,21.5,0,0,0,0-8.46A18.46,18.46,0,0,0,152.57,84.19Z" transform="translate(-10.85 -9.34)"/><path class="o" d="M149.63,41.27q14.73-8.13,29.59-16,7.83,32,15.42,64.11c9-6.26,13.62-9.35,22.93-15.45,10.62,0.46,15.91.74,26.47,1.4q-15.39,13.38-30.22,27.37,17,9.59,33.69,19.8c1.59,9,2.38,13.47,3.94,22.45q-24.12-14.28-48.8-27.5c2.36,10.93,3.54,16.4,5.87,27.34-10.58,1.38-15.86,2.12-26.4,3.71q-11.8-48.16-24.06-96.2c-3.47,1.23-5.2,1.84-8.66,3.09C149.48,49.75,149.52,46.92,149.63,41.27Z" transform="translate(-10.85 -9.34)"/><path class="o" d="M287.08,91.92c6.13,6.3,9.15,9.46,15.08,15.83-0.94,3.2-3.41,6.2-7.38,9a53.57,53.57,0,0,1-14.26,6.94,67.58,67.58,0,0,1-16.73,3.3,44,44,0,0,1-13.56-1,20.3,20.3,0,0,1-9.78-5.23c-4.25-4.26-6.88-9.94-7.8-17.05a44.09,44.09,0,0,1,1.08-16.88q2.2-8.45,5.48-12a40.7,40.7,0,0,1,8.79-7.2A45.16,45.16,0,0,1,258.32,63a48.24,48.24,0,0,1,11.34-2,45.55,45.55,0,0,1,14.81,1.51A36.36,36.36,0,0,1,297,68.58q-15.29,18.9-29.59,38.58a19.16,19.16,0,0,0,7.87-2.2,23.45,23.45,0,0,0,6.61-5.28A36.39,36.39,0,0,0,287.08,91.92ZM234.23,41.27q15.64-9.72,31.59-18.93c6.46,7.6,9.64,11.41,15.88,19.08q-19.67,4.42-39.2,9.42C239.22,47,237.56,45.08,234.23,41.27Zm35.42,38.39a13.71,13.71,0,0,0-6.08-1,15.73,15.73,0,0,0-6.1,1.65,9.29,9.29,0,0,0-3.95,3.22,14.85,14.85,0,0,0-2.6,10.17,17.33,17.33,0,0,0,.82,3.74q0.6,1.77,1.93,4.85C259.9,93.17,263.1,88.65,269.65,79.66Z" transform="translate(-10.85 -9.34)"/><path class="o" d="M286.89,35.63c4.92-10.84,17.67-14.35,28.52-14.44a112.31,112.31,0,0,1,24.88,2.57C350.65,26,360.84,29,371,32c-0.94,1.87-3,6.55-6,14.05s-4.61,11.26-4.85,11.26a47,47,0,0,0-5.57-3q-5.09-2.52-11.16-4.87a38.64,38.64,0,0,0-9.9-2.68c-1.15-.1-3.83-0.65-8.07-1.63A42,42,0,0,0,316,43.78a7.49,7.49,0,0,0-4.27,1.13q-2.45,1.71-2.35,3.91a7.22,7.22,0,0,0,2.28,4.37,31.67,31.67,0,0,0,5.62,4.63,86.63,86.63,0,0,0,7.56,4.47Q329,64.47,333,66.23A63.65,63.65,0,0,1,347,74.61a45.31,45.31,0,0,1,9.16,9.52,34.84,34.84,0,0,1,4.71,9.66,31.45,31.45,0,0,1,1.43,9.25,22.8,22.8,0,0,1-2,9.36A22.21,22.21,0,0,1,350.15,123a36.63,36.63,0,0,1-15.94,3.42,78.77,78.77,0,0,1-12-.89q-6.7-1-13-2.41t-13.37-3.35l-12.47-3.29c0.48-1.19,1.23-3.54,2.27-7s1.92-6.54,2.66-9.1,1.42-4.82,2.05-6.77,1-2.93,1.19-2.94c1.16,0.82,5,2.54,11.37,5.23s11.28,4.25,14.64,4.5a45.73,45.73,0,0,1,6.39,1.21c3,0.73,5.06,1.22,6.17,1.47a17.27,17.27,0,0,0,3.93.34,6.83,6.83,0,0,0,4-1.06q2.58-1.89,2.55-4c0-3.09-4.16-6.69-12.49-10.69a136.15,136.15,0,0,1-17.26-10.19,91.91,91.91,0,0,1-17.31-15.17c-5.11-5.77-7.94-11.6-8.35-17.54A18.83,18.83,0,0,1,286.89,35.63Z" transform="translate(-10.85 -9.34)"/><path class="o" d="M413.44,91.79c5.27,6.82,7.85,10.25,12.92,17.12-1.35,3.09-4.2,5.84-8.51,8.27a55.87,55.87,0,0,1-15.08,5.59,68.63,68.63,0,0,1-17,1.74,43.19,43.19,0,0,1-13.32-2.25,19.26,19.26,0,0,1-9-6.1c-3.66-4.63-5.52-10.51-5.51-17.66a44.81,44.81,0,0,1,3.27-16.67c2.19-5.46,4.53-9.28,7-11.43A42.87,42.87,0,0,1,377.81,64a46.82,46.82,0,0,1,10.85-3.66,48.86,48.86,0,0,1,11.52-1,44.77,44.77,0,0,1,14.52,2.86,34.65,34.65,0,0,1,11.66,7.22q-17.66,17.36-34.43,35.6a19.61,19.61,0,0,0,8.1-1.46A24.75,24.75,0,0,0,407.28,99,38.43,38.43,0,0,0,413.44,91.79ZM367.6,36.59q16.78-8.22,33.81-15.9c5.42,8.14,8.08,12.23,13.28,20.42q-20.11,2.58-40.15,5.75C371.79,42.74,370.4,40.69,367.6,36.59ZM397.73,78a13.36,13.36,0,0,0-5.9-1.6,16.07,16.07,0,0,0-6.27,1.08,9.79,9.79,0,0,0-4.34,2.84,15.35,15.35,0,0,0-3.91,9.87,17.05,17.05,0,0,0,.32,3.79q0.37,1.82,1.28,5Q388.16,88.35,397.73,78Z" transform="translate(-10.85 -9.34)"/><path class="o" d="M467.48,61.14q13.35-4.28,26.81-8.24-1.92,15.7-3.86,31.4A41.76,41.76,0,0,1,490,91a36.67,36.67,0,0,1-.91,4.8Q487,113,485,130.22c-10.25-.49-15.38-0.69-25.61-1l0.38-3.43a34.69,34.69,0,0,1-12.85,1.56,28.4,28.4,0,0,1-9-2.09,24.52,24.52,0,0,1-7.09-4.41,27.52,27.52,0,0,1-7.11-11.7,39.33,39.33,0,0,1-1.85-15.12c0.62-9.06,3.86-16.28,9.85-21.48a54.25,54.25,0,0,1,15.83-9.82,36.29,36.29,0,0,1,16.17-2.49q2.25,0.18,3.39.39ZM465.89,71a20.38,20.38,0,0,0-6.73,1.45,22.77,22.77,0,0,0-5.86,3.3,17.25,17.25,0,0,0-4,4.45,11.46,11.46,0,0,0-1.76,4.95c-0.32,3.42,1.12,6.31,4.26,8.69a16.45,16.45,0,0,0,8.72,3.56,17.76,17.76,0,0,0,2.42,0l1.34-12a5.11,5.11,0,0,1-2.76-1q-1.63-1.49-1.22-5.31A9.7,9.7,0,0,1,465.89,71Z" transform="translate(-10.85 -9.34)"/><path class="o" d="M565.48,83c-9.53,3.81-14.25,5.76-23.57,9.73A18.6,18.6,0,0,0,539,85.74a7.09,7.09,0,0,0-4.83-3.36c-2.62-.35-5.19,1.31-7.64,5s-4.33,9.92-6,19.23q-1.7,9.78-3,23.15-14.15-.17-28.32,0c0.22-10.42.47-20.83,1.95-31.15q0.32-2.24,1.11-6.14Q494.14,76,495.9,59.55c9.72-.12,14.59-0.14,24.36-0.1l2.85,4.11q4.47-.83,8.26-1.31t7.06-.63a35.14,35.14,0,0,1,6.25.27,21.28,21.28,0,0,1,10.08,4,38.25,38.25,0,0,1,7.84,7.46A17,17,0,0,1,565.48,83Z" transform="translate(-10.85 -9.34)"/><path class="o" d="M607.12,77.71a22.06,22.06,0,0,1,5.29,7.54,40.71,40.71,0,0,1,2.76,8.28,51.48,51.48,0,0,1,.87,5.29c-9.24.11-13.85,0.21-23,.48a4.19,4.19,0,0,0-2.22-4.2,16.11,16.11,0,0,0-5.22-1.82c-10.23-.82-16.69,4.15-18.78,14.34-1.66,8.06.1,13.19,4.93,14.94a13.49,13.49,0,0,0,6.94-.62,19,19,0,0,0,6.14-3.7,31.74,31.74,0,0,0,5.07-5.77c8.2,3.18,12.27,4.8,20.38,8.11-0.43.69-1.39,2.06-2.86,4.08-1.65,2.27-4.87,5.11-9.56,8.55a34.87,34.87,0,0,1-14.24,6.48,47.62,47.62,0,0,1-16.49.35,33.16,33.16,0,0,1-20.52-11.53,21.75,21.75,0,0,1-4.7-9.73,27.93,27.93,0,0,1,0-10.87,41,41,0,0,1,4-11.18,58.59,58.59,0,0,1,6.25-9.64,53.59,53.59,0,0,1,9.34-9.19,43.46,43.46,0,0,1,9.83-5.66,36.74,36.74,0,0,1,9.87-2.53,34.77,34.77,0,0,1,9.56.27A32.21,32.21,0,0,1,607.12,77.71Z" transform="translate(-10.85 -9.34)"/><path class="o" d="M643.17,86.71c7.78-.65,14.3-0.37,19.49.79a24.44,24.44,0,0,1,11.47,5.61,35,35,0,0,1,5.37,6.75,39.73,39.73,0,0,1,4.32,9.12,22.38,22.38,0,0,1,1.19,8.88A82.14,82.14,0,0,1,681,138.77a87.38,87.38,0,0,1-4,9.39q-2.39,4.85-6.44,12.38c-9.49-1.76-14.23-2.6-23.72-4.19,0.66-1.8,1.54-4.42,2.65-7.82,4-12.06,6.55-25,5.46-37.76-0.45-4.11-1.48-6.34-3-6.69-2-.45-5.11,1.68-9.16,6.4a25.25,25.25,0,0,0-2.75,4.07,45.41,45.41,0,0,0-2.48,5.35q-1.18,3-2.44,7.17-2.54,8.43-5.43,21.62-14.19-1.4-28.41-2.45a75.57,75.57,0,0,1,1.46-7.6c0.67-2.86,1.4-5.87,2.16-8.91s1.37-5.87,1.87-8.41,0.91-5.47,1.23-8.77q8.82-36.06,17.53-72.15c10.55,0.84,15.83,1.3,26.41,2.33Q647.57,64.74,643.17,86.71Z" transform="translate(-10.85 -9.34)"/><path class="p" d="M89.25,105.7c-0.71,1-1.35,1.86-1.9,2.58q9.6,15.44,18.9,31.07l2.07-2.27Q98.93,121.3,89.25,105.7Z" transform="translate(-10.85 -9.34)"/><path class="p" d="M50.08,59.2q6.79-3.2,13.22-5.53a67.55,67.55,0,0,1,10.35-2.84,90,90,0,0,1,11.95-1.78,36.21,36.21,0,0,1,8.6.87A26.07,26.07,0,0,1,102,53a24.61,24.61,0,0,1,6.36,5.52,7.69,7.69,0,0,1,1.51,3,15.16,15.16,0,0,1,0,6.25c1.34-4,1.72-7.46,1-10.24a7.69,7.69,0,0,0-1.51-3A24.61,24.61,0,0,0,103,49a26.07,26.07,0,0,0-7.79-3.11,36.21,36.21,0,0,0-8.6-.87,90,90,0,0,0-11.95,1.78,67.55,67.55,0,0,0-10.35,2.84Q57.92,52,51.11,55.21t-12.75,6.5q-6,3.3-12.64,7.18c0.42,0.41,1.1,1.15,2,2.23q5-2.88,9.59-5.41Q43.29,62.4,50.08,59.2Z" transform="translate(-10.85 -9.34)"/><path class="p" d="M86,79.58c-2.59,4.71-4.76,8.46-6.56,11.25-3.38-5.42-5.28-8.43-8.37-13.29a17.9,17.9,0,0,0-2.27,2.05c3.87,6.08,5.79,9.13,9.6,15.23,1.8-2.79,4-6.55,6.56-11.25,2.11-3.84,3.2-6.69,3.28-8.59A44.21,44.21,0,0,1,86,79.58Z" transform="translate(-10.85 -9.34)"/><path class="p" d="M278.08,42.24l3.62-.83c-6.24-7.67-9.42-11.48-15.88-19.08q-15.94,9.22-31.59,18.93l1.9,2.18q14.2-8.76,28.65-17.12C270.29,32.8,273.41,36.54,278.08,42.24Z" transform="translate(-10.85 -9.34)"/><path class="p" d="M144.12,108.93a18.44,18.44,0,0,1-9.49-1.44c-3.81-1.49-6.15-4-7-7.39a10.31,10.31,0,0,1-.21-3.35,15.82,15.82,0,0,0-.57,1.56,10.85,10.85,0,0,0-.25,5.77c0.82,3.44,3.15,5.9,7,7.39a18.44,18.44,0,0,0,9.49,1.44,10.69,10.69,0,0,0,6.76-3.75,16,16,0,0,0,3.48-7.51c0-.26.07-0.51,0.11-0.76a15.24,15.24,0,0,1-2.55,4.28A10.69,10.69,0,0,1,144.12,108.93Z" transform="translate(-10.85 -9.34)"/><path class="p" d="M233.64,87.58l-0.11.1c-0.09.36-.18,0.72-0.25,1.08C233.39,88.37,233.51,88,233.64,87.58Z" transform="translate(-10.85 -9.34)"/><path class="p" d="M212.78,106.7q11.56,6.51,22.95,13.32a28.37,28.37,0,0,1-2.79-6.25q-8.51-5-17.1-9.91C214.82,104.81,213.79,105.74,212.78,106.7Z" transform="translate(-10.85 -9.34)"/><path class="p" d="M138,90a11.24,11.24,0,0,1,4.7-4.46,20.85,20.85,0,0,0-3.91,1A8.88,8.88,0,0,0,138,90Z" transform="translate(-10.85 -9.34)"/><path class="p" d="M249.52,143.83l1.93,1.13c-1.08-6.18-1.79-10.24-2.64-15.09q-0.95-.25-1.84-0.56C247.94,134.83,248.63,138.73,249.52,143.83Z" transform="translate(-10.85 -9.34)"/><path class="p" d="M338.07,102.27a6.83,6.83,0,0,1-4,1.06,17.27,17.27,0,0,1-3.93-.34c-1.11-.25-3.16-0.74-6.17-1.47a45.72,45.72,0,0,0-6.39-1.21c-3.36-.25-8.25-1.81-14.64-4.5s-10.21-4.41-11.37-5.23c-0.16,0-.55,1-1.19,2.94l-0.42,1.32-2.84-2.93a36.39,36.39,0,0,1-5.18,7.76,23.45,23.45,0,0,1-6.61,5.28,19,19,0,0,1-5.78,2c-1,1.41-2.09,2.81-3.13,4.23a19.15,19.15,0,0,0,7.87-2.2,23.45,23.45,0,0,0,6.61-5.28A36.39,36.39,0,0,0,286,95.91l2.84,2.93,0.42-1.32c0.63-2,1-2.93,1.19-2.94,1.16,0.82,5,2.54,11.37,5.23s11.28,4.25,14.64,4.5a45.72,45.72,0,0,1,6.39,1.21c3,0.73,5.06,1.22,6.17,1.47a17.27,17.27,0,0,0,3.93.34,6.83,6.83,0,0,0,4-1.06q2.58-1.89,2.55-4a3.93,3.93,0,0,0-.21-1.17A9,9,0,0,1,338.07,102.27Z" transform="translate(-10.85 -9.34)"/><path class="p" d="M193.61,93.38c9-6.26,13.62-9.35,22.93-15.45,8.8,0.38,13.95.64,21.45,1.09l0.18-.22A40.7,40.7,0,0,1,247,71.6,45.16,45.16,0,0,1,257.28,67a48.24,48.24,0,0,1,11.34-2,45.55,45.55,0,0,1,14.81,1.51,36.81,36.81,0,0,1,11.17,5.12l1.36-1.7c-1.17-1.19-2.32-2.4-3.44-3.65-0.28-.32-0.53-0.64-0.8-1a38.33,38.33,0,0,0-7.26-2.8A45.55,45.55,0,0,0,269.66,61a48.24,48.24,0,0,0-11.34,2A45.16,45.16,0,0,0,248,67.61a40.7,40.7,0,0,0-8.79,7.2L239,75c-7.51-.45-12.66-0.71-21.45-1.09-9.31,6.1-13.89,9.2-22.93,15.45q-7.6-32.08-15.42-64.11-14.88,7.87-29.59,16c0,1.28,0,2.41-.06,3.46q14.25-7.85,28.62-15.45Q186,61.3,193.61,93.38Z" transform="translate(-10.85 -9.34)"/><path class="p" d="M119.18,82.53A34.2,34.2,0,0,1,134,76.44a37.21,37.21,0,0,1,9.29-.28,46.55,46.55,0,0,1,9.83,2.16,20.82,20.82,0,0,1,8.08,4.75A25.62,25.62,0,0,1,165,87.64c-0.66-2.61-1.32-5.21-2-7.82-0.24-.25-0.48-0.5-0.73-0.75a20.82,20.82,0,0,0-8.08-4.75,46.55,46.55,0,0,0-9.83-2.16,37.21,37.21,0,0,0-9.29.28,34.2,34.2,0,0,0-14.83,6.09,46.71,46.71,0,0,0-12.05,13.12,24.17,24.17,0,0,0-3.46,9,24.24,24.24,0,0,1,2.42-5A46.71,46.71,0,0,1,119.18,82.53Z" transform="translate(-10.85 -9.34)"/><path class="p" d="M151.54,88.18c0,0.38,0,.76-0.08,1.13,0.1-.24.19-0.48,0.28-0.72C151.67,88.45,151.61,88.31,151.54,88.18Z" transform="translate(-10.85 -9.34)"/><path class="p" d="M310.66,57.18a31.67,31.67,0,0,0,5.62,4.63,86.62,86.62,0,0,0,7.56,4.47q4.12,2.18,8.08,3.94A63.65,63.65,0,0,1,346,78.6a45.31,45.31,0,0,1,9.16,9.52,38,38,0,0,1,2.77,4.74,46.19,46.19,0,0,1,2.18-7.06c2.19-5.46,4.53-9.28,7-11.43A42.87,42.87,0,0,1,376.78,68a46.82,46.82,0,0,1,10.85-3.66,48.86,48.86,0,0,1,11.52-1,44.77,44.77,0,0,1,14.52,2.86,35.26,35.26,0,0,1,10.09,5.83c0.87-.86,1.73-1.74,2.61-2.6a34.65,34.65,0,0,0-11.66-7.22,44.77,44.77,0,0,0-14.52-2.86,48.86,48.86,0,0,0-11.52,1A46.82,46.82,0,0,0,377.81,64a42.87,42.87,0,0,0-9.66,6.35c-2.47,2.15-4.81,6-7,11.43A46.19,46.19,0,0,0,359,88.87a38,38,0,0,0-2.77-4.74A45.31,45.31,0,0,0,347,74.61,63.65,63.65,0,0,0,333,66.23q-4-1.75-8.08-3.94a86.62,86.62,0,0,1-7.56-4.47,31.67,31.67,0,0,1-5.62-4.63,8.69,8.69,0,0,1-2.1-3.33,3.92,3.92,0,0,0-1.22,3A7.22,7.22,0,0,0,310.66,57.18Z" transform="translate(-10.85 -9.34)"/><path class="p" d="M170,114.77c0,0.08,0,.16,0,0.24a23.24,23.24,0,0,0,1-3.57l-0.43-1.74A37.79,37.79,0,0,1,170,114.77Z" transform="translate(-10.85 -9.34)"/><path class="p" d="M399,107.65a24.74,24.74,0,0,0,7.25-4.64,38.43,38.43,0,0,0,6.16-7.23c3.65,4.73,6,7.83,8.81,11.57a39.63,39.63,0,0,1-.51-6.05c-2.19-2.91-4.3-5.67-7.27-9.51A38.43,38.43,0,0,1,407.28,99a24.74,24.74,0,0,1-7.25,4.64,19.53,19.53,0,0,1-5.29,1.32c-1.28,1.38-2.58,2.74-3.85,4.13A19.61,19.61,0,0,0,399,107.65Z" transform="translate(-10.85 -9.34)"/><path class="p" d="M206.68,145l1.84-.24c-1.93-9.07-3.07-14.39-4.75-22.18l-2.15-1.17C203.69,131.06,204.85,136.45,206.68,145Z" transform="translate(-10.85 -9.34)"/><path class="p" d="M314.37,25.17a112.31,112.31,0,0,1,24.88,2.57C349.61,30,359.8,33,370,36c-0.28.56-.66,1.37-1.13,2.43l0.54,0.79q15.39-7.48,31-14.53c4.58,6.87,7.19,10.86,11,16.86l3.3-.44c-5.2-8.19-7.86-12.28-13.28-20.42Q385.24,28,369.3,35.77c0.75-1.73,1.33-3,1.72-3.77-10.18-3-20.37-6-30.74-8.25a112.31,112.31,0,0,0-24.88-2.57c-10.85.1-23.6,3.61-28.52,14.44a19.77,19.77,0,0,0-1.52,5.16c0.15-.39.31-0.78,0.48-1.17C290.77,28.78,303.52,25.27,314.37,25.17Z" transform="translate(-10.85 -9.34)"/><path class="p" d="M394.83,81.18Q386.77,90,378.92,99q-0.91-3.18-1.28-5a17,17,0,0,1-.32-3.79c0-.48,0-0.95.1-1.42a14.87,14.87,0,0,0-1.14,5.41A17,17,0,0,0,376.6,98q0.37,1.82,1.28,5,9.24-10.62,18.81-21A14.44,14.44,0,0,0,394.83,81.18Z" transform="translate(-10.85 -9.34)"/><path class="p" d="M267.13,83.13c-5,6.85-8.08,11.29-13.46,19.12q-1.33-3.08-1.93-4.85a17.33,17.33,0,0,1-.82-3.74,15,15,0,0,1,0-3.29,14.53,14.53,0,0,0-1,7.28,17.33,17.33,0,0,0,.82,3.74q0.6,1.77,1.93,4.85c6.23-9.07,9.43-13.59,16-22.59A15.38,15.38,0,0,0,267.13,83.13Z" transform="translate(-10.85 -9.34)"/><path class="p" d="M460.51,97.39a16.45,16.45,0,0,1-8.72-3.56c-3-2.29-4.45-5.05-4.27-8.3a10.77,10.77,0,0,0-1,3.59c-0.32,3.42,1.12,6.31,4.26,8.69a16.45,16.45,0,0,0,8.72,3.56,17.76,17.76,0,0,0,2.42,0l0.44-4A15.16,15.16,0,0,1,460.51,97.39Z" transform="translate(-10.85 -9.34)"/><path class="p" d="M489.08,95.77A36.67,36.67,0,0,0,490,91a41.76,41.76,0,0,0,.45-6.67q1.94-15.7,3.86-31.4-13.45,3.95-26.81,8.23L467,60.65q-1.14-.21-3.39-0.39a36.29,36.29,0,0,0-16.17,2.49,54.25,54.25,0,0,0-15.83,9.82A28.33,28.33,0,0,0,422.48,89a27.45,27.45,0,0,1,8.15-12.45,54.25,54.25,0,0,1,15.83-9.82,36.29,36.29,0,0,1,16.17-2.49q2.25,0.18,3.39.39l0.43,0.49q13.35-4.28,26.81-8.23-1.92,15.7-3.86,31.4a41.76,41.76,0,0,1-.45,6.67,36.67,36.67,0,0,1-.91,4.8q-1.81,15.22-3.63,30.43l0.56,0Q487,113,489.08,95.77Z" transform="translate(-10.85 -9.34)"/><path class="p" d="M460.27,79.45A9.86,9.86,0,0,1,464.85,75a19.36,19.36,0,0,0-3.55.47,10.67,10.67,0,0,0-1,3.6C460.28,79.19,460.28,79.32,460.27,79.45Z" transform="translate(-10.85 -9.34)"/><path class="p" d="M522.07,67.55q4.47-.83,8.26-1.31t7.06-.63a35.14,35.14,0,0,1,6.25.27,21.28,21.28,0,0,1,10.08,4,38.25,38.25,0,0,1,7.84,7.46A13.22,13.22,0,0,1,563.06,80a41.38,41.38,0,0,1,7.17-3.8,36.74,36.74,0,0,1,9.87-2.53,34.77,34.77,0,0,1,9.56.27,32.21,32.21,0,0,1,16.42,7.74,22.06,22.06,0,0,1,5.29,7.54c0.51,1.15.93,2.24,1.32,3.31l1-4.1c-0.38-1-.79-2.09-1.28-3.2a22.06,22.06,0,0,0-5.29-7.54A32.21,32.21,0,0,0,590.7,70a34.77,34.77,0,0,0-9.56-.27,36.74,36.74,0,0,0-9.87,2.53A41.38,41.38,0,0,0,564.1,76a13.22,13.22,0,0,0-1.49-2.69,38.25,38.25,0,0,0-7.84-7.46,21.28,21.28,0,0,0-10.08-4,35.14,35.14,0,0,0-6.25-.27q-3.27.14-7.06,0.63t-8.26,1.31l-2.85-4.11c-9.76,0-14.63,0-24.36.1l-0.43,4c9.32-.12,14.2-0.13,23.75-0.09Z" transform="translate(-10.85 -9.34)"/><path class="p" d="M683.83,109a39.73,39.73,0,0,0-4.32-9.12,35,35,0,0,0-5.37-6.75,24.44,24.44,0,0,0-11.47-5.61c-5.19-1.16-11.71-1.45-19.49-.79q4.4-22,8.67-44c-10.58-1-15.86-1.5-26.41-2.33l-1,4c10.5,0.83,15.79,1.3,26.34,2.33q-4.27,22-8.67,44c7.78-.65,14.3-0.37,19.49.79a24.44,24.44,0,0,1,11.47,5.61,35,35,0,0,1,5.37,6.75A39.73,39.73,0,0,1,682.8,113a22.38,22.38,0,0,1,1.19,8.88,96.07,96.07,0,0,1-2,13.7,88.2,88.2,0,0,0,3-17.69A22.38,22.38,0,0,0,683.83,109Z" transform="translate(-10.85 -9.34)"/><path class="p" d="M629.6,148.7q1.47-6.67,2.84-12.13-1.43,5.36-3,12.11h0.14Z" transform="translate(-10.85 -9.34)"/><path class="p" d="M584.79,118.25a19,19,0,0,1-6.14,3.7,13.49,13.49,0,0,1-6.94.62c-4.7-1.71-6.48-6.62-5-14.31a26.48,26.48,0,0,0-.92,3.36c-1.66,8.06.1,13.19,4.93,14.94a13.49,13.49,0,0,0,6.94-.62,19,19,0,0,0,6.14-3.7,31.74,31.74,0,0,0,5.07-5.77c7,2.73,11.05,4.32,17.18,6.81,0.22-1.3.41-2.7,0.58-4.17-5.87-2.38-9.86-4-16.73-6.62A31.74,31.74,0,0,1,584.79,118.25Z" transform="translate(-10.85 -9.34)"/><path class="p" d="M517,129.7h0.63q1.3-13.37,3-23.15,0.65-3.75,1.38-6.86a102,102,0,0,0-2.42,10.85Q518.11,118.83,517,129.7Z" transform="translate(-10.85 -9.34)"/><path class="p" d="M651.33,142.31q-0.87,3.15-1.89,6.23c-1.11,3.4-2,6-2.65,7.82l0.33,0.06c0.39-1.16.81-2.45,1.29-3.88C649.51,149.18,650.5,145.77,651.33,142.31Z" transform="translate(-10.85 -9.34)"/><path class="p" d="M549.6,93l-2.17.91c-0.54.92-1.07,1.86-1.59,2.83a41,41,0,0,0-3.91,11,41.41,41.41,0,0,1,2.87-7A60.91,60.91,0,0,1,549.6,93Z" transform="translate(-10.85 -9.34)"/><path class="p" d="M86.86,72.78a1.23,1.23,0,0,1,1.3,1A4,4,0,0,1,88.25,75c0.93-2.3,1.25-4,.95-5.15a1.23,1.23,0,0,0-1.3-1,27.64,27.64,0,0,0-5.57.47c-5.35,1-9.53,3.15-12.48,6.34l1.23,1.94a24,24,0,0,1,10.21-4.29A27.64,27.64,0,0,1,86.86,72.78Z" transform="translate(-10.85 -9.34)"/><path class="p" d="M48.2,84a5.31,5.31,0,0,0-.81,1.29l-1.81,3.29c-0.74,1.35-1.21,2.19-1.41,2.5A10.07,10.07,0,0,1,42.25,89q-1.75-2.13-4.76-5.93t-6.8-8.42c-1.17-1.43-2.15-2.6-2.95-3.52l-3.05,1.77c0.78,0.76,2.44,2.67,5,5.75s4.79,5.88,6.8,8.42S40,91.55,41.21,93a10.07,10.07,0,0,0,1.92,2.09c0.2-.32.66-1.15,1.41-2.5l1.81-3.29A5.31,5.31,0,0,1,47.16,88Q72,120.64,95.43,154.31c4.67-5.31,7-8,11.85-13.23l-1-1.72c-3.52,3.88-5.83,6.47-9.78,11Q73,116.62,48.2,84Z" transform="translate(-10.85 -9.34)"/><path class="p" d="M96.62,92.59c-3.68,5.39-6.4,9.3-8.24,11.7l0.87,1.41c1.66-2.31,3.76-5.34,6.34-9.12A151.54,151.54,0,0,0,106.2,78.14a39.72,39.72,0,0,0,3.66-10.3,49.81,49.81,0,0,1-2.62,6.31A151.54,151.54,0,0,1,96.62,92.59Z" transform="translate(-10.85 -9.34)"/><path class="p" d="M241.45,54.82q19.53-5,39.2-9.42l-2.58-3.16q-17.85,4.06-35.58,8.59c-2.59-3-4.17-4.87-6.36-7.38l-2.94,1.81C236.53,49.07,238.18,51,241.45,54.82Z" transform="translate(-10.85 -9.34)"/><path class="p" d="M233.73,86.82c0.3-1.15.62-2.22,0.95-3.23Q224.11,93,213.82,102.71l2,1.15q8.76-8.19,17.69-16.18C233.59,87.4,233.65,87.11,233.73,86.82Z" transform="translate(-10.85 -9.34)"/><path class="p" d="M152.57,84.19a14.1,14.1,0,0,1-.84,4.4,18.69,18.69,0,0,1,1.58,4.61,21.27,21.27,0,0,1,.11,7.69,17.8,17.8,0,0,0,.93-3.23,21.5,21.5,0,0,0,0-8.46A18.46,18.46,0,0,0,152.57,84.19Z" transform="translate(-10.85 -9.34)"/><path class="p" d="M294.61,71.59q-14,17.47-27.19,35.57a20.26,20.26,0,0,0,2.09-.24Q282.38,89.47,296,72.57,295.3,72.06,294.61,71.59Z" transform="translate(-10.85 -9.34)"/><path class="p" d="M384.52,81.47a16.07,16.07,0,0,1,6.27-1.08,13,13,0,0,1,4,.79c1-1.06,1.93-2.13,2.9-3.18a13.36,13.36,0,0,0-5.9-1.6,16.07,16.07,0,0,0-6.27,1.08,9.79,9.79,0,0,0-4.34,2.84,15.49,15.49,0,0,0-3.81,8.45,16.62,16.62,0,0,1,2.77-4.46A9.79,9.79,0,0,1,384.52,81.47Z" transform="translate(-10.85 -9.34)"/><path class="p" d="M421.82,94.06a40.61,40.61,0,0,1,.66-5,37.3,37.3,0,0,0-1.7,9c-0.08,1.09-.09,2.17-0.08,3.25l1.55,2.06A40,40,0,0,1,421.82,94.06Z" transform="translate(-10.85 -9.34)"/><path class="p" d="M394.74,105q15-16,30.58-31.48c-0.51-.48-1-0.94-1.57-1.39q-16.28,16.14-31.82,33A20.13,20.13,0,0,0,394.74,105Z" transform="translate(-10.85 -9.34)"/><path class="p" d="M369.39,39.21l-1.13.54,0.59-1.34-0.42-.62q-1.4,3.31-3.4,8.25c-3,7.5-4.61,11.26-4.85,11.26a47,47,0,0,0-5.57-3q-5.09-2.52-11.16-4.87a38.64,38.64,0,0,0-9.9-2.68c-1.15-.1-3.83-0.65-8.07-1.63A42,42,0,0,0,316,43.78a7.49,7.49,0,0,0-4.27,1.13q-2.45,1.71-2.35,3.91a4.39,4.39,0,0,0,.18,1,6.74,6.74,0,0,1,5.4-2.09,42,42,0,0,1,9.45,1.38c4.24,1,6.92,1.53,8.07,1.63a38.64,38.64,0,0,1,9.9,2.68q6.06,2.34,11.16,4.87a47,47,0,0,1,5.57,3c0.24,0,1.83-3.76,4.85-11.26q2-4.94,3.4-8.25c2.28,3.33,3.66,5.37,6.12,9.05q20-3.17,40.15-5.75l-2.26-3.56Q392.93,44,374.54,46.86C372.45,43.72,371.13,41.77,369.39,39.21Z" transform="translate(-10.85 -9.34)"/><path class="p" d="M232.65,103.71a44,44,0,0,1,.63-14.94c-0.2.66-.39,1.33-0.58,2a44.09,44.09,0,0,0-1.08,16.88,35.17,35.17,0,0,0,1.32,6.07c1.28,0.75,2.56,1.5,3.83,2.25A31.08,31.08,0,0,1,232.65,103.71Z" transform="translate(-10.85 -9.34)"/><path class="p" d="M296,69.89A92.27,92.27,0,0,0,309.83,81.4a136.15,136.15,0,0,0,17.26,10.19c7.3,3.51,11.36,6.7,12.29,9.52a4.06,4.06,0,0,0,1.24-2.82c0-3.09-4.16-6.69-12.49-10.69a136.15,136.15,0,0,1-17.26-10.19,91.91,91.91,0,0,1-17.31-15.17c-5.11-5.77-7.94-11.6-8.35-17.54a18.08,18.08,0,0,1,.16-3.91,18.54,18.54,0,0,0-1.2,7.9c0.39,5.62,3,11.13,7.56,16.59a34.56,34.56,0,0,1,5.27,3.3Z" transform="translate(-10.85 -9.34)"/><path class="p" d="M465.89,71a20.38,20.38,0,0,0-6.73,1.45,22.77,22.77,0,0,0-5.86,3.3,17.25,17.25,0,0,0-4,4.45,11.46,11.46,0,0,0-1.76,4.95c0,0.13,0,.26,0,0.4a13.78,13.78,0,0,1,.73-1.36,17.25,17.25,0,0,1,4-4.45,22.77,22.77,0,0,1,5.86-3.3,21.77,21.77,0,0,1,3.18-1A9.86,9.86,0,0,1,465.89,71Z" transform="translate(-10.85 -9.34)"/><path class="p" d="M203.77,122.62q23.6,12.71,46.64,26.33l-0.89-5.12q-23.18-13.67-46.87-26.38Z" transform="translate(-10.85 -9.34)"/><path class="p" d="M137.11,95.74q0.75,3.33,2.82,4.39a5.5,5.5,0,0,0,3,.35c2.12-.32,4.05-1.72,5.82-4.2a14.51,14.51,0,0,0,2.71-7,15.57,15.57,0,0,1-1.67,3c-1.77,2.48-3.7,3.88-5.82,4.2a5.5,5.5,0,0,1-3-.35q-2.07-1.06-2.82-4.39A7.43,7.43,0,0,1,138,90c-0.06.12-.13,0.24-0.19,0.36A8.29,8.29,0,0,0,137.11,95.74Z" transform="translate(-10.85 -9.34)"/><path class="p" d="M135.36,88.13a20.09,20.09,0,0,1,3.4-1.57l0.06-.15a10.93,10.93,0,0,1,4.89-4.82,20.36,20.36,0,0,0-7.31,2.55,19.63,19.63,0,0,0-5.46,4.57,16.63,16.63,0,0,0-3,5.61,11.94,11.94,0,0,0-.46,2.43,17.05,17.05,0,0,1,2.45-4A19.63,19.63,0,0,1,135.36,88.13Z" transform="translate(-10.85 -9.34)"/><path class="p" d="M256.43,84.25a15.73,15.73,0,0,1,6.1-1.65,13.31,13.31,0,0,1,4.6.53l2.52-3.47a13.71,13.71,0,0,0-6.08-1,15.73,15.73,0,0,0-6.1,1.65,9.29,9.29,0,0,0-3.95,3.22,15.2,15.2,0,0,0-2.59,6.88,16.6,16.6,0,0,1,1.55-2.89A9.29,9.29,0,0,1,256.43,84.25Z" transform="translate(-10.85 -9.34)"/><path class="p" d="M459.74,125.81a34.69,34.69,0,0,1-12.85,1.56,28.4,28.4,0,0,1-9-2.09,24.52,24.52,0,0,1-7.09-4.41,26.32,26.32,0,0,1-6.16-9.16,22.79,22.79,0,0,1-6.78,5.45,55.87,55.87,0,0,1-15.08,5.59,68.63,68.63,0,0,1-17,1.74,43.19,43.19,0,0,1-13.32-2.25,19.26,19.26,0,0,1-9-6.1,23.75,23.75,0,0,1-2.74-4.41c-0.09.22-.18,0.44-0.28,0.66A22.21,22.21,0,0,1,350.15,123a36.63,36.63,0,0,1-15.94,3.42,78.77,78.77,0,0,1-12-.89q-6.7-1-13-2.41t-13.37-3.35l-4-1.06a57.34,57.34,0,0,1-11.29,5,67.58,67.58,0,0,1-16.73,3.3,44,44,0,0,1-13.56-1c-0.77-.19-1.51-0.42-2.22-0.66l0.8,4.55,0.38,0.11a44,44,0,0,0,13.56,1,67.58,67.58,0,0,0,16.73-3.3,57.34,57.34,0,0,0,11.29-5l4,1.06q7.07,1.88,13.37,3.35t13,2.41a78.77,78.77,0,0,0,12,.89A36.63,36.63,0,0,0,349.11,127a22.21,22.21,0,0,0,10.22-10.57c0.1-.22.19-0.44,0.28-0.66a23.75,23.75,0,0,0,2.74,4.41,19.26,19.26,0,0,0,9,6.1,43.19,43.19,0,0,0,13.32,2.25,68.63,68.63,0,0,0,17-1.74,55.87,55.87,0,0,0,15.08-5.59,22.79,22.79,0,0,0,6.78-5.45,26.32,26.32,0,0,0,6.16,9.16,24.52,24.52,0,0,0,7.09,4.41,28.4,28.4,0,0,0,9,2.09,34.69,34.69,0,0,0,12.85-1.56l-0.38,3.43c10.24,0.29,15.36.49,25.61,1l0.48-4c-9.88-.47-15-0.67-25.06-1Z" transform="translate(-10.85 -9.34)"/><path class="p" d="M158.06,52.31c-3.47,1.23-5.2,1.84-8.66,3.09,0.06-4.37.1-7.06,0.16-10.67l-1,.53c-0.11,5.65-.15,8.48-0.23,14.13,3.46-1.25,5.19-1.87,8.66-3.09q3,11.76,6,23.53a26.18,26.18,0,0,1,3,3.83Q162.05,68,158.06,52.31Z" transform="translate(-10.85 -9.34)"/><path class="p" d="M460.48,88.36a5.11,5.11,0,0,0,2.76,1l-0.9,8,0.59,0,1.34-12a5.11,5.11,0,0,1-2.76-1c-1-.94-1.44-2.58-1.25-4.92a10.68,10.68,0,0,0-1,3.59Q458.85,86.87,460.48,88.36Z" transform="translate(-10.85 -9.34)"/><path class="p" d="M171.53,105.71a37.79,37.79,0,0,1-.48,5.07c0,0.23-.09.43-0.13,0.65Q176,132,181.08,152.5c10.54-1.59,15.83-2.33,26.4-3.71l-0.8-3.75c-9.39,1.23-14.65,2-24.56,3.47Q176.87,127.09,171.53,105.71Z" transform="translate(-10.85 -9.34)"/><path class="p" d="M163.47,126.55a39.81,39.81,0,0,1-7.06,7.31,36,36,0,0,1-7.63,4.66,32.24,32.24,0,0,1-7.94,2.38,29.62,29.62,0,0,1-9.43,0,28.09,28.09,0,0,1-8.31-2.58,31.74,31.74,0,0,1-10.73-9.62,42.2,42.2,0,0,1-6.74-14.13,32.65,32.65,0,0,1-.91-14c-1.87,5.3-1.9,11.3-.12,18a42.2,42.2,0,0,0,6.74,14.13,31.74,31.74,0,0,0,10.73,9.62,28.09,28.09,0,0,0,8.31,2.58,29.62,29.62,0,0,0,9.43,0,32.24,32.24,0,0,0,7.94-2.38,36,36,0,0,0,7.63-4.66,39.81,39.81,0,0,0,7.06-7.31,51.94,51.94,0,0,0,5.91-10.1A21.49,21.49,0,0,0,170,115c-0.18.5-.38,1-0.59,1.44A51.94,51.94,0,0,1,163.47,126.55Z" transform="translate(-10.85 -9.34)"/><path class="p" d="M491.24,98.55q0.32-2.24,1.11-6.14,1.57-14.44,3.13-28.87h-0.61Q493.1,80,491.31,96.39q-0.79,3.9-1.11,6.14c-1.48,10.32-1.73,20.73-1.95,31.15q14.15-.16,28.32,0c0.13-1.36.27-2.69,0.41-4q-13.84-.16-27.69,0C489.51,119.28,489.76,108.86,491.24,98.55Z" transform="translate(-10.85 -9.34)"/><path class="p" d="M624.47,44.41H624.4q-5.32,22-10.71,44.05l0,0.11Q619.11,66.49,624.47,44.41Z" transform="translate(-10.85 -9.34)"/><path class="p" d="M590.79,95.11a16.11,16.11,0,0,0-5.22-1.82c-10.23-.82-16.69,4.15-18.78,14.34,0,0.21-.08.42-0.12,0.63,2.75-7.91,8.83-11.7,17.86-11a16.11,16.11,0,0,1,5.22,1.82,4.19,4.19,0,0,1,2.22,4.2c7.44-.22,11.88-0.32,18.21-0.41-1.11,4.55-2.21,9.11-3.32,13.66-0.08.88-.18,1.73-0.28,2.56l0.45,0.18q0.51-3.06.86-6.73c1.11-4.55,2.21-9.11,3.32-13.66-6.33.09-10.77,0.2-18.21,0.41A4.19,4.19,0,0,0,590.79,95.11Z" transform="translate(-10.85 -9.34)"/><path class="p" d="M541.91,92.68A18.6,18.6,0,0,0,539,85.74a7.09,7.09,0,0,0-4.83-3.36c-2.62-.35-5.19,1.31-7.64,5Q523.95,91.17,522,99.7a30.77,30.77,0,0,1,3.53-8.38c2.46-3.64,5-5.3,7.64-5A7.09,7.09,0,0,1,538,89.73a18.6,18.6,0,0,1,2.89,6.95l6.56-2.78c1-1.73,2.08-3.37,3.21-4.9C548,90.08,545.27,91.25,541.91,92.68Z" transform="translate(-10.85 -9.34)"/><path class="p" d="M677,148.16q-2.39,4.85-6.44,12.38c-9.37-1.74-14.12-2.58-23.39-4.13-0.53,1.58-1,2.9-1.37,3.94,9.49,1.59,14.23,2.42,23.72,4.19q4-7.53,6.44-12.38a87.38,87.38,0,0,0,4-9.39,63.64,63.64,0,0,0,2.06-7.19c-0.32,1.1-.65,2.18-1,3.2A87.38,87.38,0,0,1,677,148.16Z" transform="translate(-10.85 -9.34)"/><path class="p" d="M602.64,138.65c0.67-2.86,1.4-5.87,2.16-8.91,0.25-1,.48-2,0.7-2.91a64.61,64.61,0,0,1-7.69,6.39,34.87,34.87,0,0,1-14.24,6.48,47.61,47.61,0,0,1-16.49.35,33.16,33.16,0,0,1-20.52-11.53,21.75,21.75,0,0,1-4.7-9.73,27.93,27.93,0,0,1,0-10.87l0-.18a40.66,40.66,0,0,0-1.08,4.17,27.93,27.93,0,0,0,0,10.87,21.75,21.75,0,0,0,4.7,9.73A33.16,33.16,0,0,0,566,144a47.61,47.61,0,0,0,16.49-.35,34.87,34.87,0,0,0,14.24-6.48,64.61,64.61,0,0,0,7.69-6.39c-0.22.95-.45,1.92-0.7,2.91-0.76,3-1.49,6-2.16,8.91a75.57,75.57,0,0,0-1.46,7.6q14.22,1.06,28.41,2.45c0.3-1.38.6-2.7,0.9-4q-14.12-1.39-28.28-2.44A75.57,75.57,0,0,1,602.64,138.65Z" transform="translate(-10.85 -9.34)"/><path class="p" d="M654.91,110.78c-0.45-4.11-1.48-6.34-3-6.69-2-.45-5.11,1.68-9.16,6.4a25.26,25.26,0,0,0-2.75,4.07,45.42,45.42,0,0,0-2.48,5.35q-1.18,3-2.44,7.17t-2.59,9.49c0.53-2,1-3.81,1.55-5.5q1.25-4.16,2.44-7.17a45.42,45.42,0,0,1,2.48-5.35,25.26,25.26,0,0,1,2.75-4.07c4-4.72,7.12-6.85,9.16-6.4,1.57,0.35,2.59,2.58,3,6.69a86.17,86.17,0,0,1-2.54,27.54C654.18,132.08,655.81,121.38,654.91,110.78Z" transform="translate(-10.85 -9.34)"/><path class="q" d="M228.9,101l2.24-2c0.16-.67.34-1.34,0.58-2a20.75,20.75,0,0,1-.59-5.87c0-.16,0-0.32,0-0.48a10.34,10.34,0,0,1,0-3.22c0-.23.09-0.46,0.14-0.69q-8.82,7.93-17.45,16.06,10.94,6.16,21.73,12.6A17.14,17.14,0,0,1,230.66,102Z" transform="translate(-10.85 -9.34)"/><path class="q" d="M149.41,55.4c0.07-5.65.12-8.48,0.23-14.13q14.73-8.13,29.59-16,7.83,32,15.42,64.11c9-6.26,13.62-9.35,22.93-15.45,8.37,0.36,13.44.61,20.37,1a58,58,0,0,1,7.25-6.72q1.18-.92,2.42-1.7l-3-.19c-10.69-.67-15.92-0.94-26.64-1.41l-2.9-.13-2.43,1.59c-4.92,3.23-8.57,5.65-12.26,8.14-4.08-17.14-8.24-34.37-12.41-51.41l-2.74-11.22L175,17.33c-9.94,5.26-19.95,10.66-29.73,16.06l-4.55,2.51-0.1,5.2c-0.11,5.7-.15,8.49-0.23,14.18l-0.17,13,11.54-4.17c0.74,2.89,1.47,5.8,2.2,8.7a4.18,4.18,0,0,1,4.1.62,31.21,31.21,0,0,1,7.08,6.89q-3.53-14-7.1-28C154.59,53.54,152.86,54.15,149.41,55.4Z" transform="translate(-10.85 -9.34)"/><path class="q" d="M285.21,44.7c0-.47,0-0.93,0-1.39a4.44,4.44,0,0,1-3,2.26,43.1,43.1,0,0,1-5.8,1A34.67,34.67,0,0,0,281,60.15a5.05,5.05,0,0,1,1.74-.4c3.79-.15,8.37.5,11.38,3.06l-0.51-.56C288.45,56.47,285.62,50.64,285.21,44.7Z" transform="translate(-10.85 -9.34)"/><path class="q" d="M419.4,90.54l-0.19.23c0,0.24,0,.49,0,0.74a19.33,19.33,0,0,1,2.64,2.81c0-.09,0-0.17,0-0.26A36.3,36.3,0,0,1,424,83.71,77.19,77.19,0,0,1,419.4,90.54Z" transform="translate(-10.85 -9.34)"/><path class="q" d="M607.37,117.13q0.3-2.15.53-4.57c1-4,2-8.06,2.94-12.08a16.19,16.19,0,0,1-2.79.29,10.43,10.43,0,0,1-5.09,3.12,4.66,4.66,0,0,1-2.21,0l-1.59,6.51-0.16.64-0.06.65c0,0.47-.1.92-0.14,1.38C601.65,113.82,605.14,115.12,607.37,117.13Z" transform="translate(-10.85 -9.34)"/><path class="q" d="M87.64,45.06a36.3,36.3,0,0,1,7.59.88A26.06,26.06,0,0,1,103,49a24.61,24.61,0,0,1,6.36,5.52,7.69,7.69,0,0,1,1.51,3c1,4.13-.25,9.65-3.66,16.55A151.55,151.55,0,0,1,96.62,92.59c-3.68,5.39-6.4,9.3-8.24,11.7q10.13,16.3,19.93,32.79c-4.81,5.27-7.18,7.92-11.85,13.23Q73,116.62,48.2,84a5.32,5.32,0,0,0-.81,1.29c-0.46.84-1.07,2.1-1.81,3.46s-1.21,1.67-1.41,2.67h0a17.82,17.82,0,0,1-1.91-2.25c-1.16-1.42-2.75-3.48-4.76-6s-4.28-5.38-6.8-8.46-4.18-5-5-5.77Q32.4,65,38.36,61.72t12.75-6.51Q57.9,52,64.33,49.68a67.55,67.55,0,0,1,10.35-2.84,90,90,0,0,1,11.95-1.78h1M87.55,68.53h0.22a27.88,27.88,0,0,0-5.44.6c-5.35,1-9.53,3.21-12.48,6.4,3.87,6.08,5.79,9.16,9.6,15.26,1.8-2.79,4-6.53,6.56-11.24s3.67-8.07,3.19-9.87a1.34,1.34,0,0,0-1.25-1.15H87.55m0.17-32.48H86.45c-1.61,0-4.75.27-13.47,1.94a76.84,76.84,0,0,0-11.73,3.22c-4.59,1.67-9.29,3.63-14,5.85S38.17,51.53,34,53.83s-8.46,4.74-12.81,7.27l-10.26,6,8.51,8.27c0.09,0.09,1,1,4.28,5,2.35,2.87,4.61,5.67,6.72,8.31,2.25,2.82,3.74,4.92,4.85,6.27,2.05,2.5,4.38,5.56,8.78,5.6h1l1-.46,2.36-.64C62.4,118,76,136.73,89.07,155.51l6.56,9.41,7.59-8.65c4.65-5.3,7-7.87,11.73-13.11l4.5-4.93L116,132.49c-5.5-9.26-11.15-18.59-16.84-27.81,1.31-1.86,2.88-4.15,4.84-7a161.39,161.39,0,0,0,11.25-19.54c4.44-9,5.86-16.43,4.33-22.67a16.66,16.66,0,0,0-3.25-6.54l0,0,0,0a33.7,33.7,0,0,0-8.67-7.51,35.16,35.16,0,0,0-10.47-4.18,45.38,45.38,0,0,0-9.47-1.1h0Z" transform="translate(-10.85 -9.34)"/><path class="q" d="M141.2,72q1.58,0,3.14.17a46.54,46.54,0,0,1,9.83,2.16,20.81,20.81,0,0,1,8.08,4.75,26,26,0,0,1,5.46,7.56,37.26,37.26,0,0,1,3,9.18,44.69,44.69,0,0,1,.82,7.84,39.93,39.93,0,0,1-.5,7.11,21.74,21.74,0,0,1-1.67,5.67,51.94,51.94,0,0,1-5.91,10.1,39.79,39.79,0,0,1-7.06,7.31,36,36,0,0,1-7.63,4.67,32.24,32.24,0,0,1-7.94,2.38,30.27,30.27,0,0,1-5.13.39,29.22,29.22,0,0,1-4.31-.36,28.09,28.09,0,0,1-8.31-2.58,31.73,31.73,0,0,1-10.73-9.62,42.2,42.2,0,0,1-6.74-14.13c-2.35-8.86-1.55-16.52,2.55-22.95a46.71,46.71,0,0,1,12.05-13.12A34.2,34.2,0,0,1,135,72.45,37.91,37.91,0,0,1,141.2,72M142,109.08a13.44,13.44,0,0,0,2.17-.15,10.69,10.69,0,0,0,6.76-3.75,16,16,0,0,0,3.48-7.51,21.5,21.5,0,0,0,0-8.46,18.46,18.46,0,0,0-1.78-5,14.42,14.42,0,0,1-2.79,8.09c-1.77,2.48-3.7,3.88-5.82,4.2a6.05,6.05,0,0,1-1,.07,5.37,5.37,0,0,1-2-.42q-2.07-1.06-2.82-4.39a8.29,8.29,0,0,1,.68-5.34,10.93,10.93,0,0,1,4.89-4.82,20.36,20.36,0,0,0-7.31,2.55,19.62,19.62,0,0,0-5.46,4.57,16.63,16.63,0,0,0-3,5.61,10.85,10.85,0,0,0-.25,5.77c0.82,3.44,3.15,5.9,7,7.39a20.75,20.75,0,0,0,7.32,1.59M141.28,64.4h0c-2.51-2-5.07-.53-7.61-0.14A42.65,42.65,0,0,0,115,71.57,55,55,0,0,0,100.57,87c-5.46,8.56-6.69,18.6-3.66,30a51.15,51.15,0,0,0,8.17,17.08,40.71,40.71,0,0,0,13.79,12.25l0.08,0,0.08,0a37.18,37.18,0,0,0,11,3.44,38.4,38.4,0,0,0,5.64.47,39.44,39.44,0,0,0,6.65-.51,41.41,41.41,0,0,0,10.15-3,45.2,45.2,0,0,0,9.55-5.82,49,49,0,0,0,8.67-8.94,61.14,61.14,0,0,0,6.92-11.79,30.86,30.86,0,0,0,2.37-7.94,49.11,49.11,0,0,0,.62-8.71,53.91,53.91,0,0,0-1-9.43,46.43,46.43,0,0,0-3.75-11.39,35.12,35.12,0,0,0-7.34-10.15A29.81,29.81,0,0,0,157,65.77c-4.15-1.35-8.1-1.51-11.75-1.86-1.3-.13-2.62.49-3.93,0.49h0Z" transform="translate(-10.85 -9.34)"/><path class="q" d="M257.88,129.49l-0.17,0a17.51,17.51,0,0,1-9.33-2c1.06,6,1.82,10.31,3.06,17.47q-24.12-14.28-48.8-27.5c2.36,10.93,3.54,16.4,5.87,27.34-10.58,1.38-15.86,2.12-26.4,3.71q-5-20.27-10-40.51a70.88,70.88,0,0,1-2,12.7,4.4,4.4,0,0,1-3.3,3.34q3.31,13.34,6.56,26.62l2,8,8.13-1.23c10.52-1.59,15.67-2.31,26.22-3.69l9.67-1.26-2-9.54-1.74-8.15c10.58,5.87,21,11.88,31.28,17.93l16.8,9.94-3.35-19.23C259.32,137.74,258.64,133.85,257.88,129.49Z" transform="translate(-10.85 -9.34)"/><path class="q" d="M265.82,22.33c6.46,7.6,9.64,11.41,15.88,19.08q-19.67,4.42-39.2,9.42c-3.28-3.83-4.93-5.75-8.26-9.56q15.64-9.72,31.59-18.93m7.12,38.55a44.84,44.84,0,0,1,11.53,1.59A36.36,36.36,0,0,1,297,68.58q-15.29,18.9-29.59,38.58a19.17,19.17,0,0,0,7.87-2.2,23.45,23.45,0,0,0,6.61-5.28,36.4,36.4,0,0,0,5.18-7.76c6.13,6.3,9.15,9.46,15.08,15.83-0.94,3.2-3.41,6.2-7.38,9a53.58,53.58,0,0,1-14.26,6.94,67.55,67.55,0,0,1-16.73,3.3q-2.11.14-4.11,0.12a40.66,40.66,0,0,1-9.45-1.13,20.3,20.3,0,0,1-9.78-5.23c-4.25-4.26-6.88-9.94-7.8-17.05a44.09,44.09,0,0,1,1.08-16.88q2.2-8.45,5.48-12a40.7,40.7,0,0,1,8.79-7.2A45.16,45.16,0,0,1,258.32,63a48.24,48.24,0,0,1,11.34-2q1.66-.1,3.29-0.08m-19.27,41.36c6.23-9.07,9.43-13.59,16-22.59a13.93,13.93,0,0,0-5.14-1.07q-0.47,0-.94,0a15.73,15.73,0,0,0-6.1,1.65,9.3,9.3,0,0,0-3.95,3.22,14.85,14.85,0,0,0-2.6,10.17,17.33,17.33,0,0,0,.82,3.74q0.6,1.77,1.93,4.85m14.14-91.46-6.5,3.76c-10.7,6.18-21.41,12.6-31.83,19.08l-9,5.59,7,8c3.32,3.8,4.93,5.66,8.2,9.49l3.64,4.26,4.05-1,0,0a49.84,49.84,0,0,0-10.73,8.79c-3.24,3.51-5.71,8.7-7.57,15.85a53.25,53.25,0,0,0-1.3,20.3c1.17,9.06,4.65,16.55,10.35,22.26a29.21,29.21,0,0,0,14,7.61,49.86,49.86,0,0,0,11.54,1.4c1.55,0,3.16,0,4.79-.14a77,77,0,0,0,19-3.74A62.81,62.81,0,0,0,300,124.1c5.66-4,9.3-8.66,10.82-13.82l1.44-4.92-3.5-3.75c-5.7-6.11-8.81-9.38-14.43-15.16q4.86-6.23,9.69-12.21l5.82-7.2-7.36-5.62a45.45,45.45,0,0,0-15.6-7.63,53.63,53.63,0,0,0-11-1.82l7.84-1.79L297.85,47l-9.18-11.28c-6.25-7.68-9.54-11.64-16-19.23l-4.86-5.72h0Z" transform="translate(-10.85 -9.34)"/><path class="q" d="M328.13,87.6a136.27,136.27,0,0,1-17.26-10.19,92.13,92.13,0,0,1-15.26-12.93c2.38,3.52.88,7.72-2,10.71a102.14,102.14,0,0,0,12.16,9.67c3.19,2.16,6.18,4.08,9,5.77a78.74,78.74,0,0,1-8.46-3.11c-7.06-3-9.17-4-9.79-4.37l-2.39-1.69-0.44,0A6.18,6.18,0,0,1,292.33,85c-1,1.29-2.22,2.49-3.23,3.82a13.46,13.46,0,0,0-1.16,1.74,7,7,0,0,1,2.44,2.82c0.61-1.88,1-2.82,1.15-2.83,1.16,0.82,5,2.54,11.37,5.23s11.29,4.25,14.64,4.5a45.64,45.64,0,0,1,6.39,1.21c3,0.73,5.06,1.22,6.17,1.47a16.35,16.35,0,0,0,3.36.34H334a6.83,6.83,0,0,0,4-1.06q2.58-1.89,2.55-4C340.57,95.2,336.46,91.6,328.13,87.6Z" transform="translate(-10.85 -9.34)"/><path class="q" d="M373.57,23.37c-9.53-2.81-20.32-6-31.36-8.41a121.18,121.18,0,0,0-24.68-2.77h-2.19c-17.66.16-31,7.35-36.64,19.72V32c-0.17.39-.33,0.78-0.48,1.17a12,12,0,0,1,6.26,4.09,5.82,5.82,0,0,1,1.15,2.35,20.22,20.22,0,0,1,1.29-3.94c4.92-10.84,17.67-14.35,28.52-14.44h2a112.28,112.28,0,0,1,22.85,2.57c10.13,2.21,20.1,5.11,30,8,3.49-2.21,8.36-2.09,12.32-2.95h0l1.22-2.43Z" transform="translate(-10.85 -9.34)"/><path class="q" d="M368.73,45.8a8.25,8.25,0,0,1-2.2-3.45c-0.47,1.15-1,2.38-1.51,3.71-3,7.5-4.61,11.26-4.85,11.26a47,47,0,0,0-5.57-3q-5.09-2.52-11.16-4.87a38.64,38.64,0,0,0-9.9-2.68c-1.15-.1-3.83-0.65-8.07-1.63a45.45,45.45,0,0,0-9-1.38H316a7.49,7.49,0,0,0-4.27,1.13q-2.45,1.71-2.35,3.91a7.22,7.22,0,0,0,2.28,4.37,31.67,31.67,0,0,0,5.62,4.63,86.64,86.64,0,0,0,7.56,4.47Q329,64.47,333,66.23A63.65,63.65,0,0,1,347,74.61a45.29,45.29,0,0,1,9.16,9.52c0.6,0.88,1.15,1.77,1.66,2.66A49.21,49.21,0,0,1,360,79.14a5.69,5.69,0,0,1,1.81-2.5,58.13,58.13,0,0,0-9.17-9A72.89,72.89,0,0,0,336.6,58c-1.65-.73-3.34-1.53-5.07-2.4,0.49,0.07.88,0.12,1.23,0.15a29.53,29.53,0,0,1,7.45,2.11c3.74,1.44,7.24,3,10.4,4.53,2.32,1.15,3.48,1.77,4,2.06l2,1.84,3.53,0c2.14,0,6.11-.72,8.57-5.74,0.3-.61.66-1.41,1.14-2.53,0.79-1.83,1.88-4.49,3.54-8.63l0.47-1.15A9.39,9.39,0,0,1,368.73,45.8Z" transform="translate(-10.85 -9.34)"/><path class="q" d="M360.51,112.07l-0.14.33A22.21,22.21,0,0,1,350.15,123a36.64,36.64,0,0,1-15.94,3.42h-1.27a82.43,82.43,0,0,1-10.74-.89q-6.7-1-13-2.41t-13.37-3.35l-2.45-.65a3.83,3.83,0,0,1-2.07,2.06A86.65,86.65,0,0,1,280.55,125l0.51,0.13,1.3,0.34,11.15,2.95c5,1.32,9.43,2.44,13.65,3.42,4.43,1,9.06,1.89,13.77,2.56a91.85,91.85,0,0,0,11.92,1h1.47A45.73,45.73,0,0,0,354.15,131a30.4,30.4,0,0,0,11.67-10.14A91.81,91.81,0,0,1,360.51,112.07Z" transform="translate(-10.85 -9.34)"/><path class="q" d="M401.41,20.69c5.42,8.14,8.08,12.23,13.28,20.42q-20.11,2.58-40.15,5.75c-2.75-4.11-4.14-6.16-6.95-10.26q16.78-8.22,33.81-15.9M398.9,59.4l1.28,0a44.77,44.77,0,0,1,14.52,2.86,34.65,34.65,0,0,1,11.66,7.22q-17.66,17.36-34.43,35.6h0.43a19.59,19.59,0,0,0,7.67-1.47A24.75,24.75,0,0,0,407.28,99a38.43,38.43,0,0,0,6.16-7.23c5.27,6.82,7.85,10.25,12.92,17.12-1.35,3.09-4.2,5.84-8.51,8.27a55.89,55.89,0,0,1-15.08,5.59,68.88,68.88,0,0,1-16,1.76l-1.07,0a43.19,43.19,0,0,1-13.32-2.25,19.25,19.25,0,0,1-9-6.1c-3.66-4.63-5.52-10.51-5.51-17.66a44.81,44.81,0,0,1,3.27-16.67c2.19-5.47,4.53-9.28,7-11.43A42.88,42.88,0,0,1,377.81,64a46.82,46.82,0,0,1,10.85-3.66,48.64,48.64,0,0,1,10.24-1M378.92,99q9.24-10.62,18.81-21a13.36,13.36,0,0,0-5.9-1.6h-0.32a16.08,16.08,0,0,0-6,1.08,9.8,9.8,0,0,0-4.34,2.84,15.35,15.35,0,0,0-3.91,9.87,17.05,17.05,0,0,0,.32,3.79q0.37,1.82,1.28,5M404.67,9.34l-7,3.14c-11.42,5.16-22.89,10.55-34.07,16l-9.35,4.58,5.88,8.59c2.8,4.08,4.15,6.08,6.89,10.18l3.2,4.79,3.2-.51a52,52,0,0,0-11.22,7.45c-3.61,3.14-6.7,8-9.45,14.88a54,54,0,0,0-3.92,20c0,9.17,2.48,17,7.45,23.27a28.15,28.15,0,0,0,13.08,9,52.37,52.37,0,0,0,16.09,2.76l1.22,0a78.27,78.27,0,0,0,18.05-2A65.13,65.13,0,0,0,422.26,125c6.05-3.41,10.21-7.61,12.35-12.51l2.08-4.77-3.09-4.18c-4.84-6.55-7.5-10.09-12.28-16.28q5.7-5.8,11.34-11.35l6.64-6.53L432.56,63a43.73,43.73,0,0,0-14.65-9.1,52.42,52.42,0,0,0-10.33-2.76L415.84,50l14-1.8-7.58-11.95c-5.21-8.21-8-12.44-13.39-20.59l-4.23-6.36h0Z" transform="translate(-10.85 -9.34)"/><path class="q" d="M465.89,71a20.38,20.38,0,0,0-6.73,1.45,22.76,22.76,0,0,0-5.86,3.3,17.24,17.24,0,0,0-4,4.45,11.46,11.46,0,0,0-1.76,4.95c-0.32,3.42,1.12,6.31,4.26,8.69a16.45,16.45,0,0,0,8.72,3.56l0.69,0q0.72,0,1.73-.06l1.34-12a5.11,5.11,0,0,1-2.76-1q-1.63-1.49-1.22-5.31A9.7,9.7,0,0,1,465.89,71Z" transform="translate(-10.85 -9.34)"/><path class="q" d="M491.76,44.26c-8,2.36-16.13,4.83-24.1,7.37-0.91-.13-2-0.24-3.29-0.34-1-.08-2-0.13-3-0.13a45.84,45.84,0,0,0-17.09,3.21A62.45,62.45,0,0,0,427,64.72a5.85,5.85,0,0,1,1.58,3.39,21.24,21.24,0,0,1-1.86,10.09,27,27,0,0,1,4.9-5.61,54.25,54.25,0,0,1,15.83-9.82,36.77,36.77,0,0,1,13.75-2.6q1.21,0,2.42.11,2.25,0.18,3.39.39l0.43,0.49q13.35-4.28,26.81-8.24-1.92,15.7-3.86,31.4A41.74,41.74,0,0,1,490,91a36.67,36.67,0,0,1-.91,4.8Q487,113,485,130.22c-10.25-.49-15.38-0.69-25.61-1l0.38-3.43a35.27,35.27,0,0,1-10.81,1.65q-1,0-2-.08a28.41,28.41,0,0,1-9-2.09,24.53,24.53,0,0,1-7.09-4.41,25.05,25.05,0,0,1-4.69-6.11,9.92,9.92,0,0,1-3,3.2c-0.13.47-.27,0.95-0.44,1.42a4.84,4.84,0,0,1-2.45,2.89,33.2,33.2,0,0,0,4.43,5.15l0.06,0.06,0.06,0.06a33.6,33.6,0,0,0,9.66,6,37.54,37.54,0,0,0,11.85,2.77c0.86,0.06,1.74.1,2.6,0.11h0.64l-0.17,1.5,9.78,0.28c10.22,0.29,15.21.48,25.44,1l8.37,0.4,1-8.32q2-16.91,4-33.81a50.46,50.46,0,0,0,1-5.26,52.31,52.31,0,0,0,.54-7.41q1.9-15.4,3.79-30.8l1.66-13.58Z" transform="translate(-10.85 -9.34)"/><path class="q" d="M520.26,59.45l2.85,4.11q4.47-.83,8.26-1.31t7.06-.63q1,0,2,0a33.81,33.81,0,0,1,4.26.3,21.28,21.28,0,0,1,10.08,4,38.25,38.25,0,0,1,7.84,7.46A17,17,0,0,1,565.48,83c-9.53,3.81-14.25,5.76-23.57,9.73A18.6,18.6,0,0,0,539,85.73a7.1,7.1,0,0,0-4.83-3.36,5.2,5.2,0,0,0-.63,0c-2.4,0-4.75,1.65-7,5s-4.33,9.92-6,19.23q-1.7,9.78-3,23.15l-3.59,0q-12.36-.12-24.73,0c0.22-10.42.47-20.83,1.95-31.15q0.32-2.24,1.11-6.14Q494.14,76,495.9,59.55c9.72-.12,14.59-0.14,24.36-0.1m4.71-9-4.67,0c-9.85,0-14.67,0-24.51.1l-8,.1L487,58.58Q485.21,74.8,483.44,91c-0.51,2.52-.88,4.62-1.12,6.25-1.59,11.06-1.83,22.31-2,32.23l-0.2,9.3,9.3-.11c8.14-.09,16.4-0.1,24.54,0l3.56,0,8.27,0.1,0.8-8.23c0.85-8.77,1.83-16.34,2.89-22.47,1.32-7.6,2.65-11.71,3.58-13.88l0.06,0.27,2.22,10.78L545.43,101c9.32-4,13.91-5.86,23.38-9.65L574.68,89l-0.21-6.31A25.79,25.79,0,0,0,569.88,68a46.48,46.48,0,0,0-9.69-9.34A30.11,30.11,0,0,0,545.9,53a43,43,0,0,0-5.39-.38c-0.81,0-1.63,0-2.46,0-2.44.1-5.07,0.34-7.83,0.69q-1.45.19-3,.42L525,50.47h0Z" transform="translate(-10.85 -9.34)"/><path class="q" d="M603.19,108c4-.09,7.68-0.15,13-0.21l9.62-.12L625,98.12a57.54,57.54,0,0,0-1-6.35,49.8,49.8,0,0,0-3.35-10.14A31.08,31.08,0,0,0,613.17,71l0,0,0,0a41.15,41.15,0,0,0-20.92-9.91,43.15,43.15,0,0,0-6.81-.6,45.32,45.32,0,0,0-5.22.26,45.88,45.88,0,0,0-12.28,3.13,48.9,48.9,0,0,0-6.19,3,10.62,10.62,0,0,1,4.48,7.8,39.86,39.86,0,0,1,5.08-2.51,36.74,36.74,0,0,1,9.87-2.53,36.11,36.11,0,0,1,4.18-.21,34,34,0,0,1,5.39.48,32.21,32.21,0,0,1,16.42,7.74,22.06,22.06,0,0,1,5.29,7.54,40.71,40.71,0,0,1,2.76,8.28,51.42,51.42,0,0,1,.87,5.29c-9.24.11-13.85,0.21-23,.48a4.19,4.19,0,0,0-2.22-4.2,16.11,16.11,0,0,0-5.22-1.82q-1-.08-1.9-0.09c-9.13-.09-14.92,4.88-16.89,14.42-1.66,8.06.1,13.19,4.93,14.94a14.42,14.42,0,0,0,2.22.2,13.31,13.31,0,0,0,4.72-.82,19,19,0,0,0,6.14-3.7,31.73,31.73,0,0,0,5.07-5.77c8.2,3.18,12.27,4.8,20.38,8.11-0.43.69-1.39,2.06-2.86,4.08-1.65,2.27-4.87,5.11-9.56,8.55a34.87,34.87,0,0,1-14.24,6.48,51.82,51.82,0,0,1-9.92.91,42.82,42.82,0,0,1-6.58-.56,33.16,33.16,0,0,1-20.52-11.53,21.75,21.75,0,0,1-4.7-9.73,27.93,27.93,0,0,1,0-10.87,40.67,40.67,0,0,1,2-6.84c-4.81.77-6.6-3.11-6.64-7.3a50.1,50.1,0,0,0-4.2,12.41,37,37,0,0,0,0,14.35,30.75,30.75,0,0,0,6.59,13.72l0,0.06,0.05,0.06a42.19,42.19,0,0,0,25.9,14.57,52.06,52.06,0,0,0,8,.68,61.08,61.08,0,0,0,11.64-1.06,43.92,43.92,0,0,0,17.92-8.07c5.65-4.14,9.31-7.48,11.52-10.51s2.86-4,3.22-4.62l5.66-9.06-9.9-4C609.49,110.56,606.36,109.3,603.19,108Zm-19.54-2.41-1.2,1.74a22.88,22.88,0,0,1-3.63,4.14,10,10,0,0,1-3.25,2l-0.38.12a16.38,16.38,0,0,1,.41-4.18c1-4.62,2.56-7.29,8-7.24h0.26Z" transform="translate(-10.85 -9.34)"/><path class="q" d="M692.39,106.21A48.93,48.93,0,0,0,687.1,95a43.32,43.32,0,0,0-6.83-8.5,33.37,33.37,0,0,0-15.64-7.81,59,59,0,0,0-10.44-1.29c2.18-11,4.35-22,6.48-33l1.89-9.71-9.85-1c-10.67-1-15.89-1.5-26.57-2.35l-7.66-.61-1.8,7.46c-2.89,12-5.81,24-8.74,36.07A4.82,4.82,0,0,1,612,77.82a59,59,0,0,0,2.76,6.43q5.33-21.92,10.65-43.83c10.55,0.84,15.83,1.3,26.41,2.33q-4.27,22-8.67,44,4.52-.38,8.46-0.34a53,53,0,0,1,11,1.14,24.44,24.44,0,0,1,11.47,5.61,35,35,0,0,1,5.37,6.75,39.74,39.74,0,0,1,4.32,9.12,22.37,22.37,0,0,1,1.19,8.88A82.15,82.15,0,0,1,681,138.77a87.39,87.39,0,0,1-4,9.39q-2.39,4.85-6.44,12.38c-9.49-1.76-14.23-2.6-23.72-4.19,0.66-1.8,1.54-4.42,2.65-7.82,4-12.06,6.55-25,5.46-37.76-0.45-4.11-1.48-6.34-3-6.69a2.57,2.57,0,0,0-.53-0.06c-2,0-4.92,2.13-8.63,6.46a25.24,25.24,0,0,0-2.75,4.07,45.42,45.42,0,0,0-2.48,5.35q-1.18,3-2.44,7.17-2.54,8.43-5.43,21.62-14.19-1.4-28.41-2.45a75.55,75.55,0,0,1,1.46-7.6c0.35-1.47.71-3,1.08-4.52a70.12,70.12,0,0,1-8.75,3.35,4.35,4.35,0,0,1-1.36.24c-0.66,2.91-1.1,5.29-1.37,7.4l-1.19,9.4,9.45,0.7c9.36,0.7,18.85,1.52,28.2,2.44l7.73,0.76-1.85,5,10.72,1.79c9.48,1.58,14.1,2.4,23.56,4.16l6.47,1.2,3.11-5.8c2.86-5.32,5-9.46,6.58-12.65a96.79,96.79,0,0,0,4.42-10.37A91.29,91.29,0,0,0,694,118.62,31.39,31.39,0,0,0,692.39,106.21Zm-51.5,39.52c-0.93,2.84-1.88,5.71-2.55,7.51L637,156.91l1.38-6.27c1.94-8.78,3.66-15.63,5.26-21,0.76-2.53,1.5-4.7,2.19-6.47l0-.05A103,103,0,0,1,640.9,145.73Z" transform="translate(-10.85 -9.34)"/><path class="r" d="M153.3,238.13a11,11,0,0,1-4-.74,12.24,12.24,0,0,1-5.25-4.06,14.57,14.57,0,0,1-2.82-5.86,15.56,15.56,0,0,1,.1-7.52c1-3.42,3.08-4.53,4.68-4.86a9.17,9.17,0,0,1,1.85-.21,4.42,4.42,0,0,1,4.65,3.64,11.16,11.16,0,0,1-.07,3.66,10.11,10.11,0,0,0-.1,3.27,3.57,3.57,0,0,0,1.08,2.18,2.76,2.76,0,0,0,1.46.33,6.58,6.58,0,0,0,1.16-.11,8.4,8.4,0,0,0,5.62-3.92,8.88,8.88,0,0,0,1.46-6.81,7.27,7.27,0,0,0-2.08-4.18,9.3,9.3,0,0,0-5-1.87,74.46,74.46,0,0,0-9.54-.52c-3.35,0-7.16.14-11.31,0.43q-0.49,0-1,0c-4.33,0-7.23-2.27-8.15-6.4-0.57-2.57.14-5.66,2.1-9.18a36.43,36.43,0,0,1,7.63-9.3c3.37-3,6.27-4.73,8.85-5.25a12.08,12.08,0,0,1,2.4-.25,9.85,9.85,0,0,1,5.53,1.66,9,9,0,0,1,4.17,5.83c1.05,5.38-2.05,6.6-3.43,6.87a9.09,9.09,0,0,1-1.75.18,5.32,5.32,0,0,1-5-3,2.11,2.11,0,0,0-.47-0.74h-0.27a4.3,4.3,0,0,0-.81.11c-0.77.16-2.5,1-5.49,4.37a13.27,13.27,0,0,0-2.6,3.5h0.17c0.23,0,.49-0.06.76-0.07,2.46-.08,4.79-0.15,6.94-0.15a85.83,85.83,0,0,1,13.1.79c5,0.82,8.82,2.3,11.33,4.43s4.26,5.48,5.07,9.85a15.84,15.84,0,0,1-1.59,10.08,25.83,25.83,0,0,1-7.32,8.71,23,23,0,0,1-9.54,4.82A12.78,12.78,0,0,1,153.3,238.13Z" transform="translate(-10.85 -9.34)"/><path class="q" d="M147,182.62a7.86,7.86,0,0,1,4.43,1.32,7.07,7.07,0,0,1,3.31,4.55q0.78,4-1.86,4.52a7.05,7.05,0,0,1-1.36.14,3.29,3.29,0,0,1-3.21-1.88,3.11,3.11,0,0,0-1.52-1.68,3,3,0,0,0-1-.16,6.08,6.08,0,0,0-1.21.14c-1.79.37-4,2-6.59,5s-3.75,5-3.5,6.11c0.09,0.44.95,0.65,2.56,0.65l0.83,0q3.69-.13,6.86-0.13a83.48,83.48,0,0,1,12.78.78c4.69,0.76,8.15,2.11,10.36,4s3.67,4.78,4.39,8.69a13.83,13.83,0,0,1-1.42,8.83,23.73,23.73,0,0,1-6.77,8,21.23,21.23,0,0,1-8.7,4.43,10.73,10.73,0,0,1-2.14.22,9,9,0,0,1-3.27-.61,10.23,10.23,0,0,1-4.4-3.42,12.54,12.54,0,0,1-2.45-5.05,13.54,13.54,0,0,1,.07-6.56q0.84-3,3.16-3.45a7.15,7.15,0,0,1,1.44-.17,2.42,2.42,0,0,1,2.69,2,9.55,9.55,0,0,1-.09,3,12.19,12.19,0,0,0-.08,4,5.13,5.13,0,0,0,1.95,3.44,4.62,4.62,0,0,0,2.56.66,8.59,8.59,0,0,0,1.51-.14,10.4,10.4,0,0,0,6.93-4.79,10.89,10.89,0,0,0,1.75-8.29,9.15,9.15,0,0,0-2.71-5.3,11.13,11.13,0,0,0-6.11-2.36,76.19,76.19,0,0,0-9.8-.54q-5.06,0-11.44.43l-0.82,0q-5.11,0-6.19-4.83c-0.46-2.08.16-4.67,1.9-7.77a34.32,34.32,0,0,1,7.22-8.78c3.08-2.75,5.73-4.34,7.92-4.78a10,10,0,0,1,2-.21m0-4a14.09,14.09,0,0,0-2.79.29c-2.94.6-6.14,2.47-9.79,5.72a38.44,38.44,0,0,0-8,9.81c-2.25,4-3,7.48-2.31,10.59,1.13,5.06,4.81,8,10.1,8,0.35,0,.72,0,1.09,0,4.1-.28,7.86-0.43,11.17-0.43a72.53,72.53,0,0,1,9.27.51,7.29,7.29,0,0,1,4,1.38,5.38,5.38,0,0,1,1.45,3.07,6.88,6.88,0,0,1-1.17,5.34,6.4,6.4,0,0,1-4.3,3.05,4.63,4.63,0,0,1-.81.08l-0.31,0a3.76,3.76,0,0,1-.28-0.89,8.49,8.49,0,0,1,.12-2.58,12.84,12.84,0,0,0,.05-4.34,6.38,6.38,0,0,0-6.61-5.24,11.16,11.16,0,0,0-2.26.25c-1.76.37-4.89,1.67-6.2,6.28a17.54,17.54,0,0,0-.13,8.48,16.55,16.55,0,0,0,3.2,6.67,14.21,14.21,0,0,0,6.11,4.7,13,13,0,0,0,4.72.88,14.78,14.78,0,0,0,2.94-.3,24.91,24.91,0,0,0,10.38-5.21,27.8,27.8,0,0,0,7.88-9.39,17.8,17.8,0,0,0,1.77-11.33c-0.89-4.84-2.82-8.55-5.74-11s-6.94-4-12.31-4.89a87.46,87.46,0,0,0-13.43-.83c-1.2,0-2.47,0-3.77,0l0,0a14.23,14.23,0,0,1,4.06-3.55,7.3,7.3,0,0,0,6.48,3.54,11.08,11.08,0,0,0,2.14-.22c3.17-.63,6.15-3.38,5-9.21a11,11,0,0,0-5-7.11,11.82,11.82,0,0,0-6.64-2h0Z" transform="translate(-10.85 -9.34)"/><path class="r" d="M185.31,230.27c-2.42,0-4.67-1.27-6.69-3.7a19.68,19.68,0,0,1-3.93-8.17h-0.06a3.32,3.32,0,0,1-2.4-1.1A4.39,4.39,0,0,1,171,215a5.42,5.42,0,0,1,.29-3.47,5.69,5.69,0,0,1,1.7-1.89,30.7,30.7,0,0,1-.24-6.88,21,21,0,0,1,1.69-7c0.71-1.55,1.89-3.66,4-4a21.71,21.71,0,0,1,3.71-.32,21.21,21.21,0,0,1,4,.38,18.52,18.52,0,0,1,6.74,2.64c2.22,1.46,3.43,3,3.7,4.69a9.32,9.32,0,0,1,0,3.73,6.8,6.8,0,0,1-1.46,2.72,47.17,47.17,0,0,1-5.5,4.59c-2,1.57-3.28,2.59-4,3.17l0.13,0.73a9.9,9.9,0,0,0,1.28,3.6c0.12,0.19.23,0.34,0.31,0.45a23.17,23.17,0,0,0,3.54-4.27,47.17,47.17,0,0,1,4.11-5.3,5.64,5.64,0,0,1,3-1.69,7.19,7.19,0,0,1,1.12-.09,4,4,0,0,1,4.24,3.6c0.27,1.73-.42,4.31-7.24,11.38-0.18.18-.49,0.5-1,1-5.35,5.87-7.21,7.16-8.6,7.4A7.28,7.28,0,0,1,185.31,230.27Zm-1-28.67c0,0.23-.09.53-0.13,0.92l0,0.34,1.07-.74L185,202A2.36,2.36,0,0,0,184.32,201.59Z" transform="translate(-10.85 -9.34)"/><path class="q" d="M182.08,193.43a19.11,19.11,0,0,1,3.6.34,16.47,16.47,0,0,1,6,2.35q2.56,1.69,2.83,3.34a7.72,7.72,0,0,1,.06,2.92,4.81,4.81,0,0,1-1,1.92,51.84,51.84,0,0,1-5.21,4.3,54.89,54.89,0,0,0-4.89,4l0.31,1.79a11.82,11.82,0,0,0,1.56,4.32q1,1.62,1.89,1.62h0.16c1.07-.18,2.77-2,5.14-5.34a46.65,46.65,0,0,1,3.88-5,3.7,3.7,0,0,1,1.94-1.14,5.13,5.13,0,0,1,.8-0.07,2,2,0,0,1,2.26,1.91c0.25,1.61-2,4.82-6.71,9.68q-0.23.23-1,1c-4,4.34-6.42,6.61-7.48,6.8a5.25,5.25,0,0,1-.9.08q-2.72,0-5.15-2.93a17.21,17.21,0,0,1-3.68-8.08L176.25,216a4.44,4.44,0,0,1-1.5.5h-0.12a1.49,1.49,0,0,1-1-.55,2.48,2.48,0,0,1-.74-1.28,3.63,3.63,0,0,1,.12-2.23,6,6,0,0,1,2.09-1.87,29.27,29.27,0,0,1-.42-7.63,18.91,18.91,0,0,1,1.52-6.32q1.22-2.66,2.48-2.88a19.58,19.58,0,0,1,3.37-.3m0.12,13.17q0.52-.39,2.19-1.51a32.31,32.31,0,0,0,3.44-2.46,3.66,3.66,0,0,0-1.63-2.28,4,4,0,0,0-2.37-.82,3.88,3.88,0,0,0-.66.06q-0.68.12-1,2.71a15.55,15.55,0,0,0,0,4.31m-0.12-17.17a23.67,23.67,0,0,0-4.06.35c-3.34.58-4.92,4-5.43,5.16a23,23,0,0,0-1.87,7.65,32.14,32.14,0,0,0,.11,6.23,6.59,6.59,0,0,0-1.37,1.81,7.35,7.35,0,0,0-.47,4.74,6.4,6.4,0,0,0,1.83,3.37,5.85,5.85,0,0,0,2.26,1.47,20.87,20.87,0,0,0,4,7.67c2.41,2.91,5.18,4.38,8.23,4.38a9.28,9.28,0,0,0,1.58-.14c1.91-.33,3.95-1.67,9.76-8l0.82-.86,0,0,0,0c6.17-6.38,8.27-9.92,7.78-13.07a6,6,0,0,0-6.22-5.29,9,9,0,0,0-1.2.08,8,8,0,0,0,.55-1.49,11.16,11.16,0,0,0,0-4.54c-0.37-2.28-1.86-4.26-4.58-6a20.51,20.51,0,0,0-7.46-2.94,23.21,23.21,0,0,0-4.35-.41h0Zm5.69,24.71,1-.81c-0.34.47-.64,0.87-0.91,1.21q0-.2-0.09-0.41h0Zm1.18,2.83h0Z" transform="translate(-10.85 -9.34)"/><path class="r" d="M206.52,226.66c-5.09,0-6.36-3.27-6.67-5.22-0.78-4.95,1.49-10.24,6.73-15.74,0.59-.63,1.45-1.53,2.57-2.68s2.23-2.27,3.35-3.38A16.73,16.73,0,0,1,214,198.3a4.75,4.75,0,0,0-.85-1.21,1.2,1.2,0,0,0-.88-0.45h-0.18a7,7,0,0,0-2.56,1.11,8.9,8.9,0,0,0-2.27,1.91c-1.27,1.65-2.14,2.35-3.12,2.5a5,5,0,0,1-.75.06,6,6,0,0,1-3.05-.91,4.78,4.78,0,0,1-2.46-3.43c-0.3-1.94.66-3.75,2.86-5.39a42.11,42.11,0,0,1,6-3.65,20.09,20.09,0,0,1,5.66-2.15,11.09,11.09,0,0,1,1.57-.11,9.73,9.73,0,0,1,6.58,2.54c2,1.73,3.75,4.47,5.6,8.62a48.9,48.9,0,0,1,3.32,13.08,35.78,35.78,0,0,1,.19,7.55c-0.17,2.08-.5,3.16-1.19,3.86a6.12,6.12,0,0,1-2,1.27,8.42,8.42,0,0,1-2.12.62,8.81,8.81,0,0,1-1.19.08,6.18,6.18,0,0,1-2.88-.66,4.43,4.43,0,0,1-1.81-1.68,19.92,19.92,0,0,1-2.63,1.89,19.44,19.44,0,0,1-7.14,2.7A14.94,14.94,0,0,1,206.52,226.66Zm10.12-18.61c-4.56,4.34-5.3,6.94-5.23,8.28,1.23-.22,2.52-1.17,3.84-2.85a10.33,10.33,0,0,1,1.87-1.74l0.08-.06Q216.91,209.66,216.65,208.05Z" transform="translate(-10.85 -9.34)"/><path class="q" d="M214,188.61a7.75,7.75,0,0,1,5.26,2c1.88,1.65,3.53,4.43,5.1,7.94a46.7,46.7,0,0,1,3.17,12.53,33.62,33.62,0,0,1,.18,7.12,5.06,5.06,0,0,1-.62,2.61,4.25,4.25,0,0,1-1.36.84,6.53,6.53,0,0,1-1.62.48,6.75,6.75,0,0,1-.91.07,4.19,4.19,0,0,1-2-.44,2.47,2.47,0,0,1-1.36-2l-0.07-2.39a15.23,15.23,0,0,1-5,4.63,17.35,17.35,0,0,1-6.4,2.43,12.85,12.85,0,0,1-1.92.16c-2.76,0-4.32-1.17-4.69-3.53-0.67-4.27,1.36-9,6.21-14q0.9-1,2.56-2.67t3.32-3.35a7.62,7.62,0,0,1,2.59-1.92,8.29,8.29,0,0,0-1.93-3.47,3.08,3.08,0,0,0-2.75-1,8.77,8.77,0,0,0-3.36,1.41,10.8,10.8,0,0,0-2.78,2.38,4.5,4.5,0,0,1-1.83,1.74,3,3,0,0,1-.45,0,4,4,0,0,1-2-.63,2.84,2.84,0,0,1-1.5-2q-0.27-1.72,2.08-3.47a39.92,39.92,0,0,1,5.73-3.47,18.64,18.64,0,0,1,5-2,9.07,9.07,0,0,1,1.28-.09m-2.89,29.76a3.45,3.45,0,0,0,.5,0q2.69-.4,5.2-3.61a8.28,8.28,0,0,1,1.49-1.37,6.61,6.61,0,0,1,1-.71v0q-0.79-5.62-1.42-8.45c-6.19,5.16-9,9.41-8.49,12.66a1.53,1.53,0,0,0,1.66,1.48M214,184.61a13.12,13.12,0,0,0-1.85.13,21.53,21.53,0,0,0-6.28,2.34,44.07,44.07,0,0,0-6.31,3.83c-3.54,2.63-3.93,5.42-3.64,7.3a6.84,6.84,0,0,0,3.41,4.84,7.94,7.94,0,0,0,4.07,1.19,7,7,0,0,0,1.05-.08,4.63,4.63,0,0,0,1.12-.32l-0.48.5c-5.67,5.94-8.12,11.81-7.24,17.4,0.68,4.32,3.91,6.91,8.64,6.91a16.91,16.91,0,0,0,2.52-.2,21.41,21.41,0,0,0,7.87-3q0.7-.42,1.34-0.88a6.78,6.78,0,0,0,1.13.74,8.16,8.16,0,0,0,3.8.88,10.79,10.79,0,0,0,1.46-.1,10.36,10.36,0,0,0,2.63-.76,8,8,0,0,0,2.64-1.7c1.23-1.24,1.6-2.94,1.77-5.11a37.76,37.76,0,0,0-.21-8A50.87,50.87,0,0,0,228,197c-2-4.43-3.92-7.38-6.11-9.31a11.67,11.67,0,0,0-7.9-3h0Z" transform="translate(-10.85 -9.34)"/><path class="r" d="M238.89,223.16a8.36,8.36,0,0,1-2.52-.38,4.76,4.76,0,0,1-3-2.15,35.33,35.33,0,0,1-1.94-6c-0.84-3.09-1.39-5.31-1.74-7-0.09-.42-0.39-1.6-1.33-4.8a74.4,74.4,0,0,1-2.15-8.38c-0.31-2.42-.05-4.24.79-5.54a6.08,6.08,0,0,1,4.63-2.52,9.21,9.21,0,0,1,1.14-.07,6.59,6.59,0,0,1,3,.67,4.53,4.53,0,0,1,2,1.77,15.28,15.28,0,0,1,2.05-2.06,12.53,12.53,0,0,1,6.67-2.77,9.7,9.7,0,0,1,1.09-.06c2.57,0,7,1.19,7.85,9.13a5.63,5.63,0,0,1-1.07,3.82A4.65,4.65,0,0,1,251,199a13.46,13.46,0,0,1-1.46.09c-3.52,0-4.53-1.84-4.81-2.94a6.41,6.41,0,0,0-.56-1.56c-0.27.15-1.48,1-4,5.12,0.34,1.58.88,3.74,1.62,6.44a78,78,0,0,0,2.49,7.82,17.73,17.73,0,0,1,1.2,3.84,4,4,0,0,1-2,3.82,7.69,7.69,0,0,1-3.48,1.43A9.39,9.39,0,0,1,238.89,223.16Z" transform="translate(-10.85 -9.34)"/><path class="q" d="M247.6,185.85c3.38,0,5.34,2.45,5.86,7.34a3.68,3.68,0,0,1-.74,2.48,2.76,2.76,0,0,1-1.89,1.38,11.45,11.45,0,0,1-1.24.07q-2.5,0-2.88-1.44a6.14,6.14,0,0,0-1.1-2.51,1.78,1.78,0,0,0-1.36-.55l-0.33,0c-1.27.15-3.24,2.39-5.84,6.74q0.5,2.55,1.81,7.33a80.51,80.51,0,0,0,2.56,8,17.35,17.35,0,0,1,1.08,3.35,2.17,2.17,0,0,1-1.18,2,5.69,5.69,0,0,1-2.57,1.08,7.33,7.33,0,0,1-.89.06,6.33,6.33,0,0,1-1.91-.29,3,3,0,0,1-1.79-1.18,37.27,37.27,0,0,1-1.78-5.63c-0.76-2.81-1.35-5.1-1.72-6.87-0.14-.68-0.6-2.33-1.37-4.95a75.35,75.35,0,0,1-2.09-8.07,6.37,6.37,0,0,1,.49-4.2,4.2,4.2,0,0,1,3.2-1.62,7.17,7.17,0,0,1,.89-0.06,4.6,4.6,0,0,1,2.09.45,2.12,2.12,0,0,1,1.34,1.57c0.06,0.47.13,1.17,0.22,2.1s0.13,1.39.17,1.74a18.76,18.76,0,0,1,4.46-6,10.52,10.52,0,0,1,5.62-2.33,7.79,7.79,0,0,1,.87-0.05m0-4a11.84,11.84,0,0,0-1.31.08,14.5,14.5,0,0,0-7.71,3.21q-0.41.33-.8,0.7a7.77,7.77,0,0,0-1.06-.64,8.58,8.58,0,0,0-3.89-.88,11.22,11.22,0,0,0-1.39.09,8,8,0,0,0-6.06,3.41c-1.12,1.72-1.48,4-1.1,6.89a66,66,0,0,0,2.21,8.68c1,3.3,1.22,4.33,1.29,4.64,0.36,1.72.92,4,1.77,7.1a35.23,35.23,0,0,0,2.1,6.45,6.66,6.66,0,0,0,4.13,3.12,10.36,10.36,0,0,0,3.11.47,11.38,11.38,0,0,0,1.38-.08,9.65,9.65,0,0,0,4.39-1.78,6,6,0,0,0,2.85-5.69,18.87,18.87,0,0,0-1.33-4.34,76.06,76.06,0,0,1-2.43-7.61c-0.61-2.24-1.08-4.09-1.42-5.55,0.46-.72.86-1.31,1.2-1.79,1.64,2.57,4.94,2.8,6.05,2.8a15.5,15.5,0,0,0,1.67-.1,6.57,6.57,0,0,0,4.76-3.1,7.62,7.62,0,0,0,1.41-5.16c-1.05-9.85-7.23-10.91-9.83-10.91h0Z" transform="translate(-10.85 -9.34)"/><path class="r" d="M264,218.51a11.25,11.25,0,0,1-6.95-2.07,10.5,10.5,0,0,1-3.95-7.63,26.63,26.63,0,0,1,4.93-18.42,30.92,30.92,0,0,1,5.69-6.25c2.37-2,4.16-2.94,5.64-3.07,0.3,0,.58,0,0.85,0,3,0,5,1.72,5.21,4.6,0.4,4.58-2.17,6-3.73,6.44-2,.55-3.63,2.25-4.86,5a18.17,18.17,0,0,0-1.55,9.22,4.43,4.43,0,0,0,.6,2.3,0.89,0.89,0,0,0,.59.15l0.3,0c0.78-.07,2.2-0.52,4.55-2.2l0.76-.51a10.83,10.83,0,0,0,1-1.07c1.93-2.27,3.55-3.38,5.1-3.51l0.65,0a6.07,6.07,0,0,1,3.15.83,4,4,0,0,1,2.15,3.21c0.23,2.87-1.93,5.67-6.63,8.55-4.25,2.61-8.06,4-11.64,4.4C265.27,218.48,264.64,218.51,264,218.51Z" transform="translate(-10.85 -9.34)"/><path class="q" d="M270.26,183q3,0,3.22,2.77c0.21,2.41-.55,3.86-2.28,4.34-2.6.73-4.66,2.79-6.16,6.16a20.05,20.05,0,0,0-1.71,10.23,6.19,6.19,0,0,0,1.1,3.43,2.65,2.65,0,0,0,2.09.82l0.49,0a12.27,12.27,0,0,0,5.52-2.56l0.72-.47a9.11,9.11,0,0,0,1.39-1.43q2.3-2.7,3.75-2.82l0.49,0A4.08,4.08,0,0,1,281,204a2.12,2.12,0,0,1,1.18,1.65c0.17,2-1.74,4.26-5.68,6.68a26,26,0,0,1-10.79,4.11q-0.87.08-1.67,0.08a9.26,9.26,0,0,1-5.74-1.67,8.55,8.55,0,0,1-3.16-6.25,24.58,24.58,0,0,1,4.59-17.07,28.78,28.78,0,0,1,5.32-5.85c2-1.66,3.52-2.53,4.54-2.62q0.35,0,.67,0m0-4c-0.33,0-.68,0-1,0-1.93.18-4,1.26-6.73,3.53a32.9,32.9,0,0,0-6.06,6.66A28.56,28.56,0,0,0,251.16,209a12.41,12.41,0,0,0,4.73,9,13.19,13.19,0,0,0,8.15,2.48c0.66,0,1.35,0,2.06-.1,3.89-.38,8-1.91,12.49-4.68,2-1.22,8-4.92,7.58-10.41a6.07,6.07,0,0,0-3.12-4.76,8,8,0,0,0-4.17-1.11c-0.27,0-.55,0-0.82,0-2.13.18-4.12,1.48-6.45,4.21-0.39.45-.6,0.68-0.7,0.78l-0.62.42,0,0,0,0a13,13,0,0,1-2.84,1.64c0-.13,0-0.28-0.05-0.44a16,16,0,0,1,1.39-8.22c1-2.22,2.18-3.54,3.57-3.93s5.75-2.12,5.19-8.54a6.79,6.79,0,0,0-7.2-6.42h0Z" transform="translate(-10.85 -9.34)"/><path class="r" d="M289.69,217.8a7.69,7.69,0,0,1-1.89-.19,4.49,4.49,0,0,1-2.69-2.12l-0.08-.12-0.06-.13c-0.59-1.34-1.69-4.72-4.41-18.42q-0.43-2.81-2.19-10.44c-1.86-8.06-2.87-13.28-3.09-16-0.25-2.95.2-5.14,1.36-6.69s3.25-2.55,6.05-2.77l0.67,0a6.39,6.39,0,0,1,3.63,1,4.77,4.77,0,0,1,2.21,3.7c0,0.46.05,1.24,0.06,2.44,0,2.55.1,5,.27,7.28,0.09,1.14.42,3.3,1,6.78l0.22,1.24a20,20,0,0,1,1.91-1.69,16.69,16.69,0,0,1,9.39-3.64l0.55,0c2.21,0,5.34.87,7.69,5,1.76,3.11,2.77,7.47,3.09,13.33,0,0.74,0,2.43-.07,5.81-0.08,3-.09,5.54,0,6.77a5.91,5.91,0,0,1-1.65,4.59,6.57,6.57,0,0,1-4.86,1.82h-0.12a6.3,6.3,0,0,1-4-1.2,4.91,4.91,0,0,1-1.93-3.68c-0.05-.8,0-2.27,0-4.57,0.11-3.83.09-6.9-.05-9.16a26.52,26.52,0,0,0-1.27-7.19,6,6,0,0,0-.76-1.56c-0.52.16-1.7,0.82-3.4,3.38-1.57,2.37-2.31,4.47-2.18,6.24a53.34,53.34,0,0,0,1.51,9.88,32.29,32.29,0,0,1,1.19,5.06c0.21,3-1.59,4.9-4.82,5.14Q290.29,217.8,289.69,217.8Z" transform="translate(-10.85 -9.34)"/><path class="q" d="M283.39,162.92a4.41,4.41,0,0,1,2.51.7,2.79,2.79,0,0,1,1.32,2.19q0,0.63.05,2.3,0,4,.28,7.42c0.1,1.31.47,3.65,1.06,7,0.54,3,.88,5.29,1,6.69q0.55-3,4.3-5.92a14.68,14.68,0,0,1,8.28-3.22h0.43q3.67,0,5.95,4,2.4,4.23,2.84,12.46c0,0.72,0,2.6-.07,5.65-0.09,3.49-.09,5.81,0,6.91a3.91,3.91,0,0,1-1.1,3.11,4.67,4.67,0,0,1-3.45,1.21h-0.08a4.33,4.33,0,0,1-2.73-.76,2.91,2.91,0,0,1-1.18-2.23c0-.74,0-2.18,0-4.39,0.11-3.92.09-7-.05-9.34a28.31,28.31,0,0,0-1.39-7.75Q300.32,186,299,186H298.9c-1.64.11-3.39,1.55-5.23,4.31s-2.67,5.27-2.51,7.49a55.18,55.18,0,0,0,1.58,10.26,44.5,44.5,0,0,1,1.13,4.68q0.2,2.78-3,3-0.67,0-1.21,0a5.84,5.84,0,0,1-1.39-.13,2.57,2.57,0,0,1-1.49-1.24c-0.89-2-2.3-8-4.27-18q-0.41-2.72-2.2-10.5a141.86,141.86,0,0,1-3-15.68q-0.3-3.62,1-5.33t4.61-2l0.51,0m0-4q-0.4,0-.82,0c-3.41.27-5.93,1.46-7.5,3.56s-2,4.6-1.76,8.06c0.23,2.81,1.23,8,3.14,16.24,1.44,6.27,2,9,2.14,10.2v0.09l0,0.09c2.72,13.74,3.85,17.29,4.54,18.84l0.12,0.27,0.15,0.25a6.45,6.45,0,0,0,3.89,3,9.63,9.63,0,0,0,2.38.26c0.45,0,1,0,1.5-.06,4.28-.32,7-3.24,6.67-7.28a31.16,31.16,0,0,0-1.26-5.44,51.37,51.37,0,0,1-1.45-9.5c-0.09-1.3.54-3,1.85-5,0.34-.52.65-0.93,0.92-1.26a28.15,28.15,0,0,1,.84,5.66c0.14,2.2.15,5.23,0,9-0.09,3.15-.05,4.24,0,4.79a7,7,0,0,0,2.69,5.19,8.42,8.42,0,0,0,5.22,1.77h0.15a8.79,8.79,0,0,0,6.27-2.58,8.18,8.18,0,0,0,2.21-6.21c0-.44-0.08-2.23,0-6.62,0.11-4,.1-5.3.07-6-0.34-6.18-1.43-10.82-3.35-14.21-2.82-5-6.69-6-9.43-6l-0.68,0a18.53,18.53,0,0,0-9.81,3.55c-0.36-2.14-.57-3.58-0.63-4.39-0.17-2.23-.26-4.64-0.27-7.14,0-1.26,0-2.06-.06-2.58a6.79,6.79,0,0,0-3.08-5.21,8.36,8.36,0,0,0-4.74-1.38h0Z" transform="translate(-10.85 -9.34)"/><path class="r" d="M343,216.86a9.63,9.63,0,0,1-4-.84,4.31,4.31,0,0,1-2.87-3.25c0-.15-0.14-0.71-0.33-1.65-0.72-4-1.32-7.86-1.8-11.52-0.6-4.61-1.14-8.17-1.6-10.63h-2.32l-0.28-.09a4.09,4.09,0,0,1-3.17-3.78,6.21,6.21,0,0,1,.6-3,3.28,3.28,0,0,1,2.89-2c0.22,0,.49,0,0.78-0.07-0.08-.75-0.13-1.55-0.16-2.4a22.73,22.73,0,0,1,1.67-9.75,16.18,16.18,0,0,1,5.7-7,14.13,14.13,0,0,1,7.82-2.72h0.41a14.4,14.4,0,0,1,6,1.14c2.9,1.34,3.36,3.5,3.37,4.66a6.41,6.41,0,0,1-.89,3.88,3.94,3.94,0,0,1-3.46,1.6h-0.18c-3,0-4.09-1-4.51-2-0.13,0-.29,0-0.48,0l-0.2,0c-0.34,0-1.23,0-2.12,1.77a10.9,10.9,0,0,0-1.13,5.36c0,0.87.13,2.15,0.32,3.59,0.33-.11.72-0.32,1.18-0.5a15.22,15.22,0,0,1,4.63-1.23h0a3.54,3.54,0,0,1,2.79,1.45,4.51,4.51,0,0,1,.93,2.73,5,5,0,0,1-2.51,4.8l-0.16.1-0.17.06a42.28,42.28,0,0,1-5.27,1.41c0.84,4.68,1.52,8.66,1.85,10.91,0.06,0.42.27,1.67,1,5.36a76.34,76.34,0,0,1,1.35,8.14,5.09,5.09,0,0,1-1.78,3.83,5.52,5.52,0,0,1-3.7,1.69H343Z" transform="translate(-10.85 -9.34)"/><path class="q" d="M346.38,160.12a12.41,12.41,0,0,1,5.19,1,3.19,3.19,0,0,1,2.21,2.87,5.08,5.08,0,0,1-.53,2.81,2.12,2.12,0,0,1-1.84.82h-0.16c-1.82,0-2.74-.44-2.75-1.33q0-.81-2.24-0.81H346q-2.42,0-3.87,2.84a12.93,12.93,0,0,0-1.36,6.32,39.29,39.29,0,0,0,.36,4c0.12,0.88.2,1.55,0.24,2a14.61,14.61,0,0,0,3.6-1.08,14.16,14.16,0,0,1,4-1.11h0a1.53,1.53,0,0,1,1.16.69,2.48,2.48,0,0,1,.5,1.51,3.06,3.06,0,0,1-1.46,3,27.28,27.28,0,0,1-7,1.59c1.19,6.55,1.91,10.89,2.22,12.94,0.11,0.74.44,2.56,1,5.44,0.85,4.52,1.3,7.14,1.31,7.8a3.16,3.16,0,0,1-1.15,2.34,3.59,3.59,0,0,1-2.37,1.14H343a7.6,7.6,0,0,1-3.15-.67,2.48,2.48,0,0,1-1.71-1.7q0-.29-0.35-1.77-1.05-5.87-1.78-11.38-1.15-8.8-2-12.41-1.63,0-2.7,0h-0.91a2.16,2.16,0,0,1-1.79-1.94,4.22,4.22,0,0,1,.39-2.05,1.36,1.36,0,0,1,1.16-.89,17.31,17.31,0,0,0,2.07-.25l0.92-.14a24.2,24.2,0,0,1-.43-4.14,20.66,20.66,0,0,1,1.51-8.89,14.14,14.14,0,0,1,5-6.16,12.13,12.13,0,0,1,6.71-2.37h0.37m0-4h-0.45A16.09,16.09,0,0,0,337,159.2a18.14,18.14,0,0,0-6.39,7.86,24.7,24.7,0,0,0-1.83,10.6q0,0.31,0,.62a5.43,5.43,0,0,0-3.33,2.9,8.18,8.18,0,0,0-.81,4,6.11,6.11,0,0,0,4.54,5.61l0.55,0.18,0.58,0h0.42c0.38,2.28.82,5.25,1.29,8.89s1.09,7.57,1.81,11.57v0.09c0.17,0.84.28,1.37,0.31,1.58,0.22,1.45,1.1,3.43,4,4.74a11.61,11.61,0,0,0,4.78,1h0.26a7.49,7.49,0,0,0,5-2.24,7,7,0,0,0,2.4-5.31c0-.71-0.12-1.78-1.38-8.47-0.69-3.66-.89-4.88-1-5.28-0.29-2-.84-5.2-1.52-9.07,1.07-.27,2.26-0.62,3.59-1.05l0.34-.11,0.32-.17a6.88,6.88,0,0,0,3.56-6.57,6.59,6.59,0,0,0-1.36-4,5.48,5.48,0,0,0-4.3-2.21h-0.08a13.87,13.87,0,0,0-4.06.92c0-.41,0-0.67,0-0.86a8.85,8.85,0,0,1,.91-4.38c0.07-.14.14-0.33,0.2-0.42,1,1,2.6,1.74,5.34,1.74h0.21a5.91,5.91,0,0,0,5.08-2.46,8.4,8.4,0,0,0,1.25-5.09,7.13,7.13,0,0,0-4.53-6.43,16.38,16.38,0,0,0-6.87-1.3h0Z" transform="translate(-10.85 -9.34)"/><path class="r" d="M362.5,214.4c-4.31,0-7.79-1.31-10.34-4.16s-3.82-6.67-3.89-11.64a26.55,26.55,0,0,1,2.61-11.45c1.81-4,3.89-7,6.65-9.13l-0.13-.06h0a0.78,0.78,0,0,0,.39-0.24,4.49,4.49,0,0,1,3.83-2.08,9.71,9.71,0,0,1,2.91.5,5.14,5.14,0,0,0,1.51.27,12.75,12.75,0,0,1,7.19,2.58,16.54,16.54,0,0,1,5.57,6.57,20,20,0,0,1,1.83,8.89,20.41,20.41,0,0,1-9.37,17.15,15.55,15.55,0,0,1-8.69,2.8H362.5Zm2.69-28.49c-0.27.17-1.07,0.86-2.22,3.38a20.65,20.65,0,0,0-1.88,8.79,13,13,0,0,0,1,5.64c0.64,1.25,1.2,1.25,1.44,1.25,0.79,0,1.77-.87,2.76-2.44a12.08,12.08,0,0,0,1.83-6.58,19.18,19.18,0,0,0-1.43-7.48A6.78,6.78,0,0,0,365.19,185.91Z" transform="translate(-10.85 -9.34)"/><path class="q" d="M361.76,177.4a8,8,0,0,1,2.22.52,7.62,7.62,0,0,0,2.08.48h0a10.76,10.76,0,0,1,6,2.23,14.5,14.5,0,0,1,4.9,5.79,18,18,0,0,1,1.64,8,18.65,18.65,0,0,1-2.33,9,18.45,18.45,0,0,1-6.16,6.55,13.52,13.52,0,0,1-7.59,2.47H362.5c-3.74,0-6.68-1.07-8.85-3.49s-3.32-5.83-3.38-10.33A24.46,24.46,0,0,1,352.69,188a21.55,21.55,0,0,1,6.28-8.37,3.48,3.48,0,0,0,.73-0.94,2.41,2.41,0,0,1,2-1.27h-0.35m2,30h0.17c1.55,0,3-1.34,4.44-3.59a14.51,14.51,0,0,0,2.14-7.74,22.51,22.51,0,0,0-1.58-8.54c-1.07-2.56-2.18-4.13-3.33-4.13h0c-1.31,0-2.67,1.77-4.07,4.83A23,23,0,0,0,359.1,198a16.12,16.12,0,0,0,1.23,6.81c0.8,1.56,1.87,2.61,3.22,2.61m-1.79-34h0a6.42,6.42,0,0,0-5.35,3.05,26,26,0,0,0-7.32,9.83,28.79,28.79,0,0,0-2.79,12.38c0.08,5.46,1.56,9.72,4.4,12.89s6.92,4.84,11.83,4.84h0.08a17.5,17.5,0,0,0,9.79-3.14,22.64,22.64,0,0,0,10.27-18.82,21.93,21.93,0,0,0-2-9.76,18.47,18.47,0,0,0-6.23-7.35,14.64,14.64,0,0,0-8.31-2.93c-0.05,0-.34-0.13-0.88-0.3a11.7,11.7,0,0,0-3.43-.71h0Zm2,29.2a11.79,11.79,0,0,1-.69-4.52,18.41,18.41,0,0,1,1.7-7.95l0.23-.49a17.32,17.32,0,0,1,1.12,6.32,10.14,10.14,0,0,1-1.53,5.52,7.85,7.85,0,0,1-.83,1.12h0Z" transform="translate(-10.85 -9.34)"/><path class="r" d="M389.42,215.34a8.58,8.58,0,0,1-3.56-.83,4.76,4.76,0,0,1-2.62-2.55,34.88,34.88,0,0,1-1.06-6.25c-0.39-3.16-.62-5.43-0.73-7.16,0-.43-0.16-1.64-0.63-4.94a74.28,74.28,0,0,1-.93-8.6c0-2.44.55-4.2,1.57-5.37a6,6,0,0,1,4.74-1.84h0.2a7.08,7.08,0,0,1,4,1.18,4.54,4.54,0,0,1,1.7,2,15.18,15.18,0,0,1,2.31-1.75,12.44,12.44,0,0,1,6.54-1.8h0.44a7.25,7.25,0,0,1,5.29,2.2c1.65,1.76,2.39,4.4,2.25,8a5.63,5.63,0,0,1-1.6,3.63,4.7,4.7,0,0,1-3.48,1.75h-0.13c-4.46-.15-5.61-2.1-5.8-3.72a6.44,6.44,0,0,0-.33-1.62c-0.3.12-1.61,0.8-4.68,4.49,0.11,1.61.34,3.83,0.68,6.6a78.3,78.3,0,0,0,1.35,8.1,17.71,17.71,0,0,1,.64,4,4,4,0,0,1-2.54,3.49,7.73,7.73,0,0,1-3.51.92h-0.13Z" transform="translate(-10.85 -9.34)"/><path class="q" d="M401,179.47h0.38c3.93,0.12,5.8,2.86,5.61,8.17a3.68,3.68,0,0,1-1.08,2.35,2.8,2.8,0,0,1-2,1.1H403.8c-2.44-.08-3.74-0.73-3.88-1.94a7.13,7.13,0,0,0-.73-2.81,2,2,0,0,0-1.59-.94h0c-1.28,0-3.53,2.12-6.69,6,0.09,1.73.34,4.32,0.74,7.6a81.89,81.89,0,0,0,1.39,8.35,17.52,17.52,0,0,1,.59,3.49,2.21,2.21,0,0,1-1.45,1.81,5.82,5.82,0,0,1-2.6.74h-0.09a6.27,6.27,0,0,1-2.74-.66,3,3,0,0,1-1.6-1.44,37.56,37.56,0,0,1-1-5.83c-0.36-2.89-.61-5.25-0.72-7,0-.69-0.26-2.4-0.65-5.09a75.33,75.33,0,0,1-.91-8.29A6.38,6.38,0,0,1,383,181a4.08,4.08,0,0,1,3.23-1.15h0.16a5.12,5.12,0,0,1,2.9.82,2.12,2.12,0,0,1,1.1,1.75c0,0.47,0,1.18-.08,2.11s-0.07,1.4-.08,1.74a18.74,18.74,0,0,1,5.26-5.26,10.43,10.43,0,0,1,5.51-1.51m0-4h0a14.42,14.42,0,0,0-7.58,2.09q-0.44.27-.88,0.58a7.78,7.78,0,0,0-.95-0.78,9,9,0,0,0-5.12-1.54H386.2a7.89,7.89,0,0,0-6.25,2.52c-1.35,1.54-2,3.72-2.06,6.66a66,66,0,0,0,1,8.91c0.49,3.4.59,4.46,0.61,4.78,0.11,1.76.35,4.07,0.74,7.28a34.8,34.8,0,0,0,1.16,6.69,6.66,6.66,0,0,0,3.63,3.67,10.56,10.56,0,0,0,4.39,1h0.18A9.7,9.7,0,0,0,394,216.2,6,6,0,0,0,397.6,211a18.9,18.9,0,0,0-.7-4.48,76.38,76.38,0,0,1-1.31-7.88c-0.28-2.3-.49-4.21-0.61-5.69,0.56-.65,1-1.17,1.44-1.6,0.76,1.67,2.63,3.62,7.25,3.78h0.2a6.63,6.63,0,0,0,5-2.4,7.63,7.63,0,0,0,2.13-4.91c0.15-4.15-.79-7.34-2.79-9.48a9.24,9.24,0,0,0-6.69-2.83H401Z" transform="translate(-10.85 -9.34)"/><path class="r" d="M425.83,177a7.66,7.66,0,0,1-4.42-1.78c-0.57-.46-2.3-1.87-2.18-3.89a8,8,0,0,1,1.28-3.28,25.51,25.51,0,0,1,2.44-3.77,14.09,14.09,0,0,1,4-3.11,8.88,8.88,0,0,1,4.14-1.49h0.23a7,7,0,0,1,3.58,1.17,3.84,3.84,0,0,1,1.85,3.51c-0.08,1.25-.93,2.65-2.92,4.84a25.32,25.32,0,0,0-2.33,3.15,17.46,17.46,0,0,1-2.71,3.53A4.14,4.14,0,0,1,426,177h-0.22Z" transform="translate(-10.85 -9.34)"/><path class="q" d="M431.09,161.68h0.1a5.07,5.07,0,0,1,2.58.82,1.9,1.9,0,0,1,1,1.72q-0.07,1.07-2.41,3.63a27,27,0,0,0-2.53,3.4,17,17,0,0,1-2.34,3.1A2.22,2.22,0,0,1,426,175H426a5.67,5.67,0,0,1-3.28-1.33q-1.5-1.22-1.45-2.22a8,8,0,0,1,1-2.43,23.18,23.18,0,0,1,2.24-3.47,12.47,12.47,0,0,1,3.44-2.63,7.61,7.61,0,0,1,3.15-1.22m0-4h0a10.61,10.61,0,0,0-5.13,1.75A16,16,0,0,0,421.4,163a27.45,27.45,0,0,0-2.65,4.08,10,10,0,0,0-1.52,4.12c-0.12,2,.87,3.89,2.92,5.56A9.62,9.62,0,0,0,425.7,179H426a6.12,6.12,0,0,0,4-1.6,18.74,18.74,0,0,0,3.08-4,22.61,22.61,0,0,1,2.13-2.88c2.33-2.56,3.32-4.31,3.44-6.05a5.87,5.87,0,0,0-2.71-5.3,9,9,0,0,0-4.58-1.52h-0.36Z" transform="translate(-10.85 -9.34)"/><path class="r" d="M439.14,217.43c-2.92-.22-5.21-2-6.8-5.39a19.13,19.13,0,0,1-1.81-8.84,3.32,3.32,0,0,1-2.1-1.71,4.45,4.45,0,0,1-.67-2.57,5.47,5.47,0,0,1,1.14-3.3,5.69,5.69,0,0,1,2.11-1.42,30.81,30.81,0,0,1,1.45-6.73,21,21,0,0,1,3.35-6.36c1-1.26,2.58-2.94,4.56-2.94h0.25a21.2,21.2,0,0,1,7.42,1.94,18.5,18.5,0,0,1,5.87,4.21c1.79,2,2.58,3.74,2.43,5.45a9.36,9.36,0,0,1-.89,3.63,6.82,6.82,0,0,1-2.08,2.28,47.13,47.13,0,0,1-6.45,3.1c-2.35,1-3.8,1.71-4.6,2.11l-0.06.74a10,10,0,0,0,.35,3.8c0.07,0.21.13,0.38,0.19,0.51a23.28,23.28,0,0,0,4.46-3.27,47,47,0,0,1,5.28-4.13,5.88,5.88,0,0,1,3-.91l0.39,0a4.86,4.86,0,0,1,3.46,1.59,4.14,4.14,0,0,1,.87,3.13c-0.16,1.75-1.46,4.08-9.79,9.25-0.23.13-.6,0.37-1.17,0.74-6.37,4.22-8.52,5.08-9.9,5.08h-0.23ZM444,189.2c-0.1.21-.22,0.49-0.35,0.85l-0.12.31,1.21-.45-0.16-.2A2.39,2.39,0,0,0,444,189.2Z" transform="translate(-10.85 -9.34)"/><path class="q" d="M440.37,180.19h0.1a19.12,19.12,0,0,1,6.73,1.75,16.42,16.42,0,0,1,5.24,3.75q2.07,2.26,1.92,3.93a7.72,7.72,0,0,1-.66,2.85,4.81,4.81,0,0,1-1.48,1.6,51.86,51.86,0,0,1-6.09,2.89,54.72,54.72,0,0,0-5.71,2.71l-0.14,1.81a11.86,11.86,0,0,0,.45,4.57q0.64,2,1.58,2.06h0.1c1.1,0,3.15-1.33,6.17-3.92a46.47,46.47,0,0,1,5-3.93,3.92,3.92,0,0,1,1.95-.64h0.21q2.73,0.25,2.52,2.54c-0.15,1.63-3.13,4.18-8.86,7.74l-1.2.75c-4.76,3.16-7.68,4.76-8.82,4.76h-0.08q-3.25-.25-5.14-4.25a17.25,17.25,0,0,1-1.58-8.74l0.09-1.29a3.63,3.63,0,0,1-1.07.13l-0.5,0a1.32,1.32,0,0,1-.94-0.79,2.49,2.49,0,0,1-.4-1.42,3.64,3.64,0,0,1,.66-2.13,6,6,0,0,1,2.48-1.3,29.38,29.38,0,0,1,1.46-7.5,18.94,18.94,0,0,1,3-5.75q1.76-2.19,3-2.19m0.33,13.34q0.59-.25,2.49-0.92a32.2,32.2,0,0,0,3.93-1.55,3.66,3.66,0,0,0-1-2.61,3.85,3.85,0,0,0-2.73-1.48h0q-0.68,0-1.58,2.39a15.63,15.63,0,0,0-1,4.18m-0.33-17.34c-3.17,0-5.39,2.78-6.12,3.69a23,23,0,0,0-3.68,7,32.26,32.26,0,0,0-1.42,6.07,6.58,6.58,0,0,0-1.77,1.42,7.36,7.36,0,0,0-1.61,4.47,6.41,6.41,0,0,0,.94,3.71,5.85,5.85,0,0,0,1.82,2,20.91,20.91,0,0,0,2,8.42c2.39,5,5.91,6.33,8.45,6.52h0.39c1.84,0,4.14-.86,11-5.41l1-.65,0,0,0,0c7.53-4.68,10.44-7.59,10.73-10.77A6.09,6.09,0,0,0,460.9,198a6.68,6.68,0,0,0-4.57-2.27,8,8,0,0,0,.9-1.32,11.16,11.16,0,0,0,1.12-4.4c0.2-2.3-.76-4.58-2.95-7a20.46,20.46,0,0,0-6.5-4.68,23.18,23.18,0,0,0-8.12-2.12l-0.4,0h0Zm3.87,26,1.13-.52c-0.42.36-.8,0.66-1.14,0.92q0-.2,0-0.4h0Z" transform="translate(-10.85 -9.34)"/><path class="r" d="M498.14,222.49a9.74,9.74,0,0,1-1.26-.09c-3.87-.5-5.9-3-5.43-6.75,0.12-.93.48-3.68,1.31-9.16,0.57-3.78.93-6.16,1.07-7.26,0.5-3.95.05-5.23-.11-5.54l-0.51,0a4.22,4.22,0,0,0-1.57.29,13.1,13.1,0,0,0-2.86,1.81c0,0.63-.11,1.68-0.18,3.21v0.3c-0.19,3.76-.3,6-0.4,7.09-0.08.9-.21,2.35-0.36,4.34-0.22,2.71-.35,4.2-0.44,5-0.42,3.53-2.64,5.56-6.09,5.56a10.31,10.31,0,0,1-1.18-.07A7.18,7.18,0,0,1,476,219.6a4.65,4.65,0,0,1-1.32-4.15c0-.14.39-2.85,0.39-2.85,0.74-5.32,1.35-10.05,1.67-13a17,17,0,0,0-.09-6.16,2.86,2.86,0,0,0-.48-1.06c-0.31,0-1.26.25-3.07,2.15a8.69,8.69,0,0,0-2.63,5.15,50.63,50.63,0,0,0,.36,10.2,33.74,33.74,0,0,1,.33,6.4c-0.11,1-.69,2.4-2.86,3.31a8.13,8.13,0,0,1-3.12.7l-0.58,0a9,9,0,0,1-3.41-1,4.55,4.55,0,0,1-2.34-2.63l0-.09,0-.09c-0.5-2.47-.69-6.92-0.56-13.24a92.14,92.14,0,0,0-.44-10,33,33,0,0,1-.21-5.19,5.37,5.37,0,0,1,2.63-4,6.67,6.67,0,0,1,3.71-1.31l0.44,0c2.47,0.24,4.21,1.11,5.17,2.58a6.11,6.11,0,0,1,.62,1.27,18.64,18.64,0,0,1,2.83-2,12.18,12.18,0,0,1,6-1.77,9.19,9.19,0,0,1,1,.06A9.46,9.46,0,0,1,485,185a8.7,8.7,0,0,1,1.74,1.93,17.74,17.74,0,0,1,4.31-1.83,20.59,20.59,0,0,1,5.69-.86,16.53,16.53,0,0,1,2.08.13,6.92,6.92,0,0,1,4.92,3.24,13.55,13.55,0,0,1,2.12,6.19c0.26,2.32,0,6.9-.77,14-0.11,1-.22,2.64-0.33,5-0.1,2.08-.2,3.52-0.3,4.29a6.07,6.07,0,0,1-2.53,4.31A6.57,6.57,0,0,1,498.14,222.49Z" transform="translate(-10.85 -9.34)"/><path class="q" d="M463.88,184.71h0.25q2.77,0.27,3.69,1.69a8.61,8.61,0,0,1,.91,4.58,16.46,16.46,0,0,1,5.2-4.64,10.18,10.18,0,0,1,5-1.51,7.16,7.16,0,0,1,.79,0,7.46,7.46,0,0,1,4,1.69,6.38,6.38,0,0,1,2.21,3.54,12.73,12.73,0,0,1,5.67-3.06,18.52,18.52,0,0,1,5.13-.78,14.41,14.41,0,0,1,1.83.11,5,5,0,0,1,3.51,2.38,11.54,11.54,0,0,1,1.79,5.29c0.24,2.11,0,6.64-.77,13.54-0.12,1.08-.23,2.78-0.34,5.08q-0.15,3.08-.29,4.12a4,4,0,0,1-1.69,2.94,4.59,4.59,0,0,1-2.69.76,7.77,7.77,0,0,1-1-.07c-2.81-.37-4-1.87-3.7-4.52,0.2-1.59.63-4.64,1.31-9.11,0.57-3.73.94-6.18,1.08-7.3q0.94-7.43-1.69-7.76a7.31,7.31,0,0,0-.9-0.06,6.23,6.23,0,0,0-2.3.43,17.7,17.7,0,0,0-4.05,2.63v0.11c0,0.3-.13,1.65-0.25,4-0.19,3.8-.31,6.25-0.41,7.31s-0.21,2.37-.37,4.36c-0.2,2.46-.34,4.09-0.43,4.88-0.3,2.54-1.67,3.8-4.11,3.8a8.32,8.32,0,0,1-.95-0.06,5.41,5.41,0,0,1-3-1.05,2.76,2.76,0,0,1-.69-2.47c0-.2.16-1.13,0.39-2.79,0.86-6.2,1.4-10.57,1.68-13a19.23,19.23,0,0,0-.16-6.92q-0.67-2.35-2.12-2.51h-0.26q-1.88,0-4.53,2.77a10.69,10.69,0,0,0-3.17,6.33,52.34,52.34,0,0,0,.36,10.63,33.15,33.15,0,0,1,.33,6,2.25,2.25,0,0,1-1.64,1.68,6.14,6.14,0,0,1-2.35.54l-0.38,0a7,7,0,0,1-2.65-.77,2.63,2.63,0,0,1-1.38-1.46c-0.46-2.26-.65-6.54-0.52-12.79a94,94,0,0,0-.45-10.25,32.35,32.35,0,0,1-.21-4.83,3.45,3.45,0,0,1,1.74-2.52,4.83,4.83,0,0,1,2.59-1m0-4a8.7,8.7,0,0,0-4.82,1.65,7.29,7.29,0,0,0-3.5,5.47,31.4,31.4,0,0,0,.21,5.56,90.21,90.21,0,0,1,.44,9.8c-0.14,6.56.06,11,.6,13.68l0,0.19,0.06,0.18a6.49,6.49,0,0,0,3.3,3.8,11,11,0,0,0,4.17,1.23c0.26,0,.52,0,0.78,0a10.11,10.11,0,0,0,3.89-.86,6.36,6.36,0,0,0,3.74-3.57,6.22,6.22,0,0,0,1.82,3.18,9.05,9.05,0,0,0,5.29,2.09,12.35,12.35,0,0,0,1.4.08c4.45,0,7.54-2.81,8.08-7.32,0.09-.8.22-2.26,0.44-5,0.16-2,.28-3.41.36-4.31,0.1-1.12.22-3.43,0.41-7.26v-0.23c0-.92.09-1.67,0.12-2.26a12.24,12.24,0,0,1,1.34-.85,23.15,23.15,0,0,1-.22,3c-0.14,1.11-.55,3.8-1.07,7.21-0.59,3.89-1.07,7.25-1.32,9.2-0.61,4.81,2.2,8.34,7.16,9a11.82,11.82,0,0,0,1.52.1,8.53,8.53,0,0,0,5-1.47,8,8,0,0,0,3.37-5.69c0.11-.83.22-2.29,0.32-4.46s0.21-3.87.32-4.83c0.79-7.23,1-11.94.77-14.42a15.52,15.52,0,0,0-2.46-7.09,8.89,8.89,0,0,0-6.31-4.1,18.5,18.5,0,0,0-2.34-.15,22.58,22.58,0,0,0-6.24.94,21.56,21.56,0,0,0-3.23,1.2,11.27,11.27,0,0,0-1-.92,11.42,11.42,0,0,0-6.14-2.58,11.2,11.2,0,0,0-1.23-.07,14.14,14.14,0,0,0-7,2q-0.63.36-1.22,0.75a8.75,8.75,0,0,0-6.22-2.88q-0.31,0-.63,0h0Zm10.65,12.89h0ZM473,212.35c-0.06-.79-0.15-1.68-0.27-2.67a48.78,48.78,0,0,1-.35-9.77,6.78,6.78,0,0,1,2.08-4l0.38-.39a24.71,24.71,0,0,1-.18,3.86c-0.32,2.91-.93,7.61-1.66,12.92v0h0Z" transform="translate(-10.85 -9.34)"/><path class="r" d="M543.65,231a7.35,7.35,0,0,1-1.28-.11,6.72,6.72,0,0,1-3.7-1.8,4.42,4.42,0,0,1-1.21-2.16,20,20,0,0,1-3.09,1,21.08,21.08,0,0,1-4.85.6,17.28,17.28,0,0,1-2.77-.22c-6.87-1.12-7.28-5.19-6.91-7.52,0.78-4.95,4.56-9.29,11.25-12.91,0.76-.42,1.85-1,3.27-1.76s2.82-1.48,4.23-2.18a16.79,16.79,0,0,1,1.85-.82,4.77,4.77,0,0,0-.44-1.41,1.14,1.14,0,0,0-.87-0.74,3.87,3.87,0,0,0-.65,0,8.64,8.64,0,0,0-2.14.32,9.43,9.43,0,0,0-2.75.92,5.55,5.55,0,0,1-3.33,1.25h-0.16l-0.25.18a5.5,5.5,0,0,1-3.36-1.87,4.68,4.68,0,0,1-1.28-4c0.31-1.93,1.78-3.34,4.38-4.22a42.11,42.11,0,0,1,6.85-1.61,29.21,29.21,0,0,1,4.42-.42,9.65,9.65,0,0,1,1.63.12,9.77,9.77,0,0,1,7,4.81c1.34,2.25,2.2,5.41,2.69,9.93a48.83,48.83,0,0,1-.85,13.47,35.74,35.74,0,0,1-2.13,7.24c-0.8,1.93-1.45,2.85-2.32,3.3a6.14,6.14,0,0,1-2.3.59C544.26,231,543.95,231,543.65,231Zm-11.24-11.53a3.48,3.48,0,0,0,.49,0,7.67,7.67,0,0,0,4.05-1.57,10.32,10.32,0,0,1,2.31-1.08l0.1,0q0.34-2,.58-3.62C534.27,215.93,532.76,218.18,532.42,219.47Z" transform="translate(-10.85 -9.34)"/><path class="q" d="M540.86,193.49a7.89,7.89,0,0,1,6.93,4c1.28,2.15,2,5.3,2.42,9.12a46.62,46.62,0,0,1-.83,12.89,33.53,33.53,0,0,1-2,6.83,5.05,5.05,0,0,1-1.39,2.29,4.27,4.27,0,0,1-1.56.38q-0.4,0-.76,0a5.36,5.36,0,0,1-.93-0.07,4.75,4.75,0,0,1-2.63-1.24,2.47,2.47,0,0,1-.69-2.29l0.67-2.29a15.25,15.25,0,0,1-6.15,2.88,19,19,0,0,1-4.39.54,15.2,15.2,0,0,1-2.45-.19c-4-.64-5.71-2.38-5.26-5.24,0.67-4.27,4-8.12,10.22-11.47q1.15-.64,3.25-1.75c1.4-.74,2.8-1.6,4.19-2.31a8.81,8.81,0,0,1,3-1.17h0a9.41,9.41,0,0,0-.77-3.76,3,3,0,0,0-2.32-1.72,6,6,0,0,0-1,0,10.65,10.65,0,0,0-2.65.41,10.81,10.81,0,0,0-3.38,1.42,5.23,5.23,0,0,1-2.19,1.1h-0.09a3.72,3.72,0,0,1-2.18-1.33,2.83,2.83,0,0,1-.81-2.38q0.27-1.72,3-2.67a39.87,39.87,0,0,1,6.52-1.54,27.31,27.31,0,0,1,4.1-.4M542.37,210c-7.48,3-11.44,6.2-12,9.44q-0.28,1.72,1.62,2a5.45,5.45,0,0,0,.9.07,9.5,9.5,0,0,0,5.17-1.91,8.27,8.27,0,0,1,1.84-.85,7.72,7.72,0,0,1,1.2-.35h0v0h0q1-5.56,1.24-8.44m-1.51-20.47a30.82,30.82,0,0,0-4.73.45,44,44,0,0,0-7.18,1.71c-4.18,1.42-5.41,4-5.71,5.83a6.84,6.84,0,0,0,1.76,5.66,7.63,7.63,0,0,0,4.54,2.63,4.57,4.57,0,0,0,.73.06l0.45,0-0.61.34c-7.23,3.91-11.35,8.75-12.23,14.34-0.3,1.92-.58,8.32,8.57,9.81a19.29,19.29,0,0,0,3.09.25,23.1,23.1,0,0,0,5.32-.65q0.8-.19,1.55-0.43a6.78,6.78,0,0,0,.86,1.06,8.67,8.67,0,0,0,4.76,2.36,9.38,9.38,0,0,0,1.63.14c0.35,0,.72,0,1.1,0a8.08,8.08,0,0,0,3-.81c1.55-.8,2.42-2.3,3.26-4.32a37.67,37.67,0,0,0,2.25-7.65,50.79,50.79,0,0,0,.87-14c-0.52-4.82-1.46-8.23-3-10.74a11.84,11.84,0,0,0-8.39-5.76,11.6,11.6,0,0,0-2-.15h0Z" transform="translate(-10.85 -9.34)"/><path class="r" d="M559.31,234.2a8.32,8.32,0,0,1-1.56-.16,10.24,10.24,0,0,1-4.3-1.77,4.43,4.43,0,0,1-1.94-4.11c0.06-.48.2-2,0.33-4.55,0.26-5,.57-9.16.89-12.1,0.18-1.63.3-4.91,0.36-10,0.1-8.18.44-13.73,1-17,1.19-6.52,5-7.49,7.23-7.49a9.19,9.19,0,0,1,1.68.16,8.78,8.78,0,0,1,3.85,1.69,4.33,4.33,0,0,1,1.69,4.38c-0.06.33-.26,1.28-0.7,3-0.57,2.23-1.14,4.52-1.46,6.17-0.22,1.17-.45,5-0.68,11.42-0.18,5.14-.37,8.45-0.55,9.84a78.6,78.6,0,0,0-.25,10.19,33,33,0,0,1-.16,6,5.15,5.15,0,0,1-2.58,3.66A5.93,5.93,0,0,1,559.31,234.2Z" transform="translate(-10.85 -9.34)"/><path class="q" d="M561.35,179a7.13,7.13,0,0,1,1.32.13,6.77,6.77,0,0,1,3,1.3,2.35,2.35,0,0,1,1,2.43c-0.09.49-.31,1.46-0.68,2.89-0.66,2.57-1.18,4.68-1.48,6.29-0.26,1.34-.49,5.24-0.71,11.72q-0.27,7.73-.54,9.64a80.38,80.38,0,0,0-.26,10.49,38.64,38.64,0,0,1-.12,5.53,3.16,3.16,0,0,1-1.58,2.3,3.94,3.94,0,0,1-1.93.46,6.27,6.27,0,0,1-1.19-.12,8.25,8.25,0,0,1-3.47-1.4,2.47,2.47,0,0,1-1.16-2.28c0.07-.6.21-2.18,0.34-4.69,0.28-5.25.59-9.28,0.88-12,0.2-1.78.31-5.21,0.37-10.23,0.1-7.9.42-13.45,1-16.64q1.07-5.84,5.26-5.85m0-4h0c-2.26,0-7.69.89-9.19,9.13-0.62,3.4-1,8.9-1.07,17.31-0.06,5.06-.18,8.28-0.35,9.84-0.32,3-.64,7.18-0.9,12.21-0.13,2.52-.26,4-0.32,4.42a6.43,6.43,0,0,0,2.71,5.94,12.21,12.21,0,0,0,5.13,2.14,10.3,10.3,0,0,0,1.94.19,7.9,7.9,0,0,0,3.85-1,7.19,7.19,0,0,0,3.58-5,33.49,33.49,0,0,0,.2-6.38,77.31,77.31,0,0,1,.23-9.89c0.2-1.47.38-4.75,0.57-10,0.29-8.26.53-10.51,0.65-11.11,0.31-1.59.87-3.85,1.43-6,0.32-1.27.59-2.41,0.73-3.13a6.32,6.32,0,0,0-2.41-6.33,10.76,10.76,0,0,0-4.72-2.09,11.17,11.17,0,0,0-2.05-.2h0Z" transform="translate(-10.85 -9.34)"/><path class="r" d="M573.28,237a8.27,8.27,0,0,1-1.66-.18,10.26,10.26,0,0,1-4.28-1.83,4.42,4.42,0,0,1-1.88-4.14c0.06-.48.22-2,0.39-4.55,0.33-5,.69-9.17,1.05-12.09,0.2-1.62.36-4.9,0.49-10,0.21-8.17.62-13.72,1.25-17,1.2-6.11,4.59-7.4,7.22-7.4a9.07,9.07,0,0,1,1.79.19,8.78,8.78,0,0,1,3.83,1.74,4.33,4.33,0,0,1,1.63,4.4c-0.07.32-.27,1.25-0.74,3-0.69,2.58-1.22,4.61-1.54,6.15-0.24,1.17-.52,5-0.83,11.41-0.25,5.14-.48,8.45-0.68,9.83a78.9,78.9,0,0,0-.38,10.19,32.94,32.94,0,0,1-.24,6,5.15,5.15,0,0,1-2.63,3.63A5.91,5.91,0,0,1,573.28,237Z" transform="translate(-10.85 -9.34)"/><path class="q" d="M575.87,181.83a7.06,7.06,0,0,1,1.39.15,6.78,6.78,0,0,1,3,1.34,2.35,2.35,0,0,1,.93,2.44c-0.1.48-.33,1.46-0.71,2.88-0.69,2.56-1.24,4.67-1.57,6.27-0.27,1.33-.55,5.24-0.87,11.71q-0.37,7.73-.66,9.64a80.32,80.32,0,0,0-.4,10.49,38.62,38.62,0,0,1-.19,5.53,3.16,3.16,0,0,1-1.61,2.28,3.91,3.91,0,0,1-1.87.44,6.2,6.2,0,0,1-1.25-.14,8.26,8.26,0,0,1-3.45-1.44,2.47,2.47,0,0,1-1.13-2.29c0.08-.6.24-2.18,0.4-4.69,0.35-5.24.71-9.27,1-12,0.22-1.78.38-5.21,0.51-10.22,0.2-7.9.59-13.44,1.22-16.62q1.13-5.77,5.26-5.78m0-4h0c-2.23,0-7.59.88-9.19,9-0.67,3.39-1.08,8.89-1.29,17.29-0.13,5.06-.29,8.28-0.48,9.84-0.36,3-.73,7.18-1.06,12.2-0.17,2.52-.31,4-0.38,4.41a6.43,6.43,0,0,0,2.63,6,12.22,12.22,0,0,0,5.1,2.21,10.23,10.23,0,0,0,2.06.22,7.88,7.88,0,0,0,3.75-.9,7.19,7.19,0,0,0,3.65-5,33.48,33.48,0,0,0,.28-6.38,77.25,77.25,0,0,1,.36-9.89c0.21-1.47.44-4.74,0.7-10,0.4-8.26.67-10.5,0.79-11.1,0.33-1.59.92-3.84,1.51-6,0.34-1.27.62-2.4,0.77-3.12a6.32,6.32,0,0,0-2.33-6.36,10.77,10.77,0,0,0-4.69-2.15,11.1,11.1,0,0,0-2.18-.23h0Z" transform="translate(-10.85 -9.34)"/><path class="r" d="M585.05,240.83a7.76,7.76,0,0,1-1.65-.18c-4.06-.89-5.92-3.57-5.11-7.36a5.58,5.58,0,0,1,3-3.73,6.84,6.84,0,0,1,3.35-.9,6.61,6.61,0,0,1,1.4.15,5.6,5.6,0,0,1,3.88,3.52,7.67,7.67,0,0,1,.71,4.82,4.44,4.44,0,0,1-2.89,3.17A6.9,6.9,0,0,1,585.05,240.83Zm2.57-13.09a5.52,5.52,0,0,1-1.17-.13,7.45,7.45,0,0,1-3.75-2.14,4.53,4.53,0,0,1-1.51-4.23q0.11-.49.66-2.87l0.45-1.94c1.47-6.33,2.05-9,2.2-9.7,0.26-1.21.82-4.65,1.76-10.81,0.34-2.23.95-6.13,1.16-7.11a6.86,6.86,0,0,1,2.63-4.08,5.88,5.88,0,0,1,3.64-1.31,5.77,5.77,0,0,1,1.23.13,6.21,6.21,0,0,1,4.12,2.63,7.23,7.23,0,0,1,.64,5.6l-0.4,1.63c-0.72,2.92-1.29,5.49-1.81,7.83-0.78,3.51-1.81,8.6-3,14.74-0.73,3.81-1.08,5.6-1.26,6.39a7.4,7.4,0,0,1-2.25,4.07A5,5,0,0,1,587.62,227.73Z" transform="translate(-10.85 -9.34)"/><path class="q" d="M593.67,185.42a3.76,3.76,0,0,1,.8.09q4.32,0.94,3.24,5.84c0,0.19-.18.73-0.39,1.58-0.74,3-1.33,5.66-1.83,7.88q-1.12,5.07-3,14.8c-0.65,3.37-1.06,5.49-1.25,6.33a5.44,5.44,0,0,1-1.62,3,3,3,0,0,1-2,.79,3.49,3.49,0,0,1-.75-0.08,5.46,5.46,0,0,1-2.75-1.59,2.67,2.67,0,0,1-1-2.41c0.09-.44.46-2,1.1-4.77,1.16-5,1.89-8.28,2.2-9.73s0.87-5,1.78-10.92c0.62-4,1-6.37,1.14-7a4.89,4.89,0,0,1,1.89-2.91,3.91,3.91,0,0,1,2.42-.89m-9.09,45.23a4.57,4.57,0,0,1,1,.11,3.72,3.72,0,0,1,2.48,2.39,5.73,5.73,0,0,1,.58,3.57,2.54,2.54,0,0,1-1.7,1.75,4.88,4.88,0,0,1-1.87.37,5.71,5.71,0,0,1-1.22-.14q-4.45-1-3.59-5a3.63,3.63,0,0,1,2-2.4,4.84,4.84,0,0,1,2.38-.65m9.09-49.23h0a7.94,7.94,0,0,0-4.86,1.72,8.93,8.93,0,0,0-3.36,5.25c-0.21,1-.76,4.47-1.18,7.23-0.59,3.85-1.41,9.16-1.74,10.69-0.14.67-.73,3.36-2.19,9.67L580,217.56q-0.63,2.73-.75,3.26a6.5,6.5,0,0,0,2,6.05l0.33,0.32a9.6,9.6,0,0,0-1.33.61,7.52,7.52,0,0,0-3.93,5.06c-1,4.88,1.5,8.61,6.64,9.73a9.75,9.75,0,0,0,2.07.23,8.89,8.89,0,0,0,3.39-.67,6.44,6.44,0,0,0,4.09-4.58,10.7,10.7,0,0,0-2.26-8.37,7.24,7.24,0,0,0,2-1.26,9.36,9.36,0,0,0,2.88-5.14c0.18-.82.53-2.56,1.27-6.45,1.17-6.11,2.2-11.19,3-14.69,0.51-2.32,1.09-4.87,1.8-7.79l0.23-.93c0.09-.37.15-0.62,0.18-0.74a9.13,9.13,0,0,0-.91-7.11,8.16,8.16,0,0,0-5.38-3.5,7.79,7.79,0,0,0-1.65-.18h0Z" transform="translate(-10.85 -9.34)"/></svg>